<mxfile host="app.diagrams.net" modified="2023-05-28T15:26:06.817Z" agent="Mozilla/5.0 (X11; Linux x86_64; rv:109.0) Gecko/20100101 Firefox/113.0" etag="kgJKsLX4hoGGp8j1coWQ" version="21.3.5">
  <diagram name="Page-1" id="bA72a4y-goOnSIUye4ob">
    <mxGraphModel dx="1434" dy="749" grid="1" gridSize="10" guides="1" tooltips="1" connect="1" arrows="1" fold="1" page="1" pageScale="1" pageWidth="827" pageHeight="1169" math="0" shadow="0">
      <root>
        <mxCell id="0" />
        <mxCell id="1" parent="0" />
        <mxCell id="9wrE17VdA23gmFdNsfKJ-36" value="HTTP" style="edgeStyle=orthogonalEdgeStyle;rounded=0;orthogonalLoop=1;jettySize=auto;html=1;entryX=0;entryY=0.5;entryDx=0;entryDy=0;entryPerimeter=0;strokeWidth=2;fontSize=15;" edge="1" parent="1" source="9jAOJpAXfEybDHtKabXW-2" target="9jAOJpAXfEybDHtKabXW-7">
          <mxGeometry relative="1" as="geometry" />
        </mxCell>
        <mxCell id="9jAOJpAXfEybDHtKabXW-2" value="website" style="outlineConnect=0;dashed=0;verticalLabelPosition=bottom;verticalAlign=top;align=center;html=1;shape=mxgraph.aws3.ec2;fillColor=#F58534;gradientColor=none;fontSize=20;aspect=fixed;" parent="1" vertex="1">
          <mxGeometry x="220.76" y="266.25" width="70" height="70" as="geometry" />
        </mxCell>
        <mxCell id="9jAOJpAXfEybDHtKabXW-4" value="" style="sketch=0;outlineConnect=0;fontColor=#232F3E;gradientColor=none;fillColor=#2E27AD;strokeColor=none;dashed=0;verticalLabelPosition=bottom;verticalAlign=top;align=center;html=1;fontSize=15;fontStyle=0;aspect=fixed;pointerEvents=1;shape=mxgraph.aws4.rds_mysql_instance;" parent="1" vertex="1">
          <mxGeometry x="387.5" y="784.18" width="70" height="70" as="geometry" />
        </mxCell>
        <mxCell id="9wrE17VdA23gmFdNsfKJ-35" value="HTTP" style="edgeStyle=orthogonalEdgeStyle;rounded=0;orthogonalLoop=1;jettySize=auto;html=1;strokeWidth=2;fontSize=15;" edge="1" parent="1" source="9jAOJpAXfEybDHtKabXW-5" target="9jAOJpAXfEybDHtKabXW-2">
          <mxGeometry relative="1" as="geometry" />
        </mxCell>
        <mxCell id="9jAOJpAXfEybDHtKabXW-5" value="" style="verticalLabelPosition=bottom;html=1;verticalAlign=top;align=center;strokeColor=none;fillColor=#00BEF2;shape=mxgraph.azure.user;aspect=fixed;" parent="1" vertex="1">
          <mxGeometry x="70" y="276.25" width="50" height="50" as="geometry" />
        </mxCell>
        <mxCell id="9wrE17VdA23gmFdNsfKJ-53" value="HTTP" style="edgeStyle=orthogonalEdgeStyle;rounded=0;orthogonalLoop=1;jettySize=auto;html=1;exitX=1;exitY=0.5;exitDx=0;exitDy=0;exitPerimeter=0;entryX=0;entryY=0.5;entryDx=0;entryDy=0;entryPerimeter=0;fontSize=15;strokeWidth=2;" edge="1" parent="1" source="9jAOJpAXfEybDHtKabXW-7" target="9wrE17VdA23gmFdNsfKJ-5">
          <mxGeometry relative="1" as="geometry" />
        </mxCell>
        <mxCell id="9wrE17VdA23gmFdNsfKJ-57" value="gRPC" style="edgeStyle=orthogonalEdgeStyle;rounded=0;orthogonalLoop=1;jettySize=auto;html=1;exitX=0.5;exitY=0;exitDx=0;exitDy=0;exitPerimeter=0;entryX=0;entryY=0.5;entryDx=0;entryDy=0;entryPerimeter=0;fontSize=15;strokeWidth=2;startArrow=classic;startFill=1;" edge="1" parent="1" source="9jAOJpAXfEybDHtKabXW-7" target="9jAOJpAXfEybDHtKabXW-8">
          <mxGeometry relative="1" as="geometry">
            <Array as="points">
              <mxPoint x="423" y="218" />
              <mxPoint x="340" y="218" />
              <mxPoint x="340" y="135" />
            </Array>
          </mxGeometry>
        </mxCell>
        <mxCell id="9wrE17VdA23gmFdNsfKJ-75" value="HTTP" style="edgeStyle=orthogonalEdgeStyle;rounded=0;orthogonalLoop=1;jettySize=auto;html=1;exitX=1;exitY=0.79;exitDx=0;exitDy=0;exitPerimeter=0;entryX=0.5;entryY=0;entryDx=0;entryDy=0;fontSize=15;strokeWidth=2;" edge="1" parent="1" source="9jAOJpAXfEybDHtKabXW-7" target="9wrE17VdA23gmFdNsfKJ-27">
          <mxGeometry relative="1" as="geometry" />
        </mxCell>
        <mxCell id="9jAOJpAXfEybDHtKabXW-7" value="dialog-api" style="outlineConnect=0;dashed=0;verticalLabelPosition=bottom;verticalAlign=top;align=center;html=1;shape=mxgraph.aws3.ec2;fillColor=#F58534;gradientColor=none;fontSize=20;aspect=fixed;" parent="1" vertex="1">
          <mxGeometry x="387.5" y="266.25" width="70" height="70" as="geometry" />
        </mxCell>
        <mxCell id="9jAOJpAXfEybDHtKabXW-8" value="dialog-model" style="outlineConnect=0;dashed=0;verticalLabelPosition=bottom;verticalAlign=top;align=center;html=1;shape=mxgraph.aws3.ec2;fillColor=#F58534;gradientColor=none;fontSize=20;aspect=fixed;" parent="1" vertex="1">
          <mxGeometry x="380" y="100" width="70" height="70" as="geometry" />
        </mxCell>
        <mxCell id="9wrE17VdA23gmFdNsfKJ-2" value="ECR" style="sketch=0;points=[[0,0,0],[0.25,0,0],[0.5,0,0],[0.75,0,0],[1,0,0],[0,1,0],[0.25,1,0],[0.5,1,0],[0.75,1,0],[1,1,0],[0,0.25,0],[0,0.5,0],[0,0.75,0],[1,0.25,0],[1,0.5,0],[1,0.75,0]];outlineConnect=0;fontColor=#232F3E;gradientColor=#F78E04;gradientDirection=north;fillColor=#D05C17;strokeColor=#ffffff;dashed=0;verticalLabelPosition=bottom;verticalAlign=top;align=center;html=1;fontSize=20;fontStyle=0;shape=mxgraph.aws4.resourceIcon;resIcon=mxgraph.aws4.ecr;aspect=fixed;" vertex="1" parent="1">
          <mxGeometry x="30" y="20" width="70" height="70" as="geometry" />
        </mxCell>
        <mxCell id="9wrE17VdA23gmFdNsfKJ-5" value="summary-queue" style="sketch=0;points=[[0,0,0],[0.25,0,0],[0.5,0,0],[0.75,0,0],[1,0,0],[0,1,0],[0.25,1,0],[0.5,1,0],[0.75,1,0],[1,1,0],[0,0.25,0],[0,0.5,0],[0,0.75,0],[1,0.25,0],[1,0.5,0],[1,0.75,0]];outlineConnect=0;fontColor=#232F3E;gradientColor=#FF4F8B;gradientDirection=north;fillColor=#BC1356;strokeColor=#ffffff;dashed=0;verticalLabelPosition=bottom;verticalAlign=top;align=center;html=1;fontSize=20;fontStyle=0;aspect=fixed;shape=mxgraph.aws4.resourceIcon;resIcon=mxgraph.aws4.sqs;" vertex="1" parent="1">
          <mxGeometry x="570" y="266.25" width="70" height="70" as="geometry" />
        </mxCell>
        <mxCell id="9wrE17VdA23gmFdNsfKJ-69" value="HTTP" style="edgeStyle=orthogonalEdgeStyle;rounded=0;orthogonalLoop=1;jettySize=auto;html=1;entryX=0.5;entryY=0;entryDx=0;entryDy=0;entryPerimeter=0;strokeWidth=2;fontSize=15;" edge="1" parent="1" source="9wrE17VdA23gmFdNsfKJ-6" target="9wrE17VdA23gmFdNsfKJ-24">
          <mxGeometry relative="1" as="geometry" />
        </mxCell>
        <mxCell id="9wrE17VdA23gmFdNsfKJ-6" value="" style="outlineConnect=0;dashed=0;verticalLabelPosition=bottom;verticalAlign=top;align=center;html=1;shape=mxgraph.aws3.lambda_function;fillColor=#F58534;gradientColor=none;aspect=fixed;" vertex="1" parent="1">
          <mxGeometry x="927.5" y="608.48" width="70" height="73.04" as="geometry" />
        </mxCell>
        <mxCell id="9wrE17VdA23gmFdNsfKJ-7" value="Docker Hub" style="shape=image;html=1;verticalAlign=top;verticalLabelPosition=bottom;labelBackgroundColor=#ffffff;imageAspect=0;aspect=fixed;image=https://cdn0.iconfinder.com/data/icons/social-media-2104/24/social_media_social_media_logo_docker-128.png;fontSize=20;" vertex="1" parent="1">
          <mxGeometry x="150.76" y="20" width="70" height="70" as="geometry" />
        </mxCell>
        <mxCell id="9wrE17VdA23gmFdNsfKJ-72" style="edgeStyle=orthogonalEdgeStyle;rounded=0;orthogonalLoop=1;jettySize=auto;html=1;strokeWidth=2;" edge="1" parent="1" source="9wrE17VdA23gmFdNsfKJ-9" target="9jAOJpAXfEybDHtKabXW-4">
          <mxGeometry relative="1" as="geometry" />
        </mxCell>
        <mxCell id="9wrE17VdA23gmFdNsfKJ-9" value="" style="image;aspect=fixed;html=1;points=[];align=center;fontSize=12;image=img/lib/azure2/other/Grafana.svg;" vertex="1" parent="1">
          <mxGeometry x="377.5" y="929.9999999999999" width="90" height="69.88" as="geometry" />
        </mxCell>
        <mxCell id="9wrE17VdA23gmFdNsfKJ-54" value="HTTP" style="edgeStyle=orthogonalEdgeStyle;rounded=0;orthogonalLoop=1;jettySize=auto;html=1;entryX=1;entryY=0.5;entryDx=0;entryDy=0;entryPerimeter=0;strokeWidth=2;fontSize=15;" edge="1" parent="1" source="9wrE17VdA23gmFdNsfKJ-11" target="9wrE17VdA23gmFdNsfKJ-5">
          <mxGeometry relative="1" as="geometry" />
        </mxCell>
        <mxCell id="9wrE17VdA23gmFdNsfKJ-58" value="HTTP" style="edgeStyle=orthogonalEdgeStyle;rounded=0;orthogonalLoop=1;jettySize=auto;html=1;exitX=1;exitY=0.5;exitDx=0;exitDy=0;exitPerimeter=0;entryX=0;entryY=0.5;entryDx=0;entryDy=0;strokeWidth=2;fontSize=15;" edge="1" parent="1" source="9wrE17VdA23gmFdNsfKJ-11" target="9wrE17VdA23gmFdNsfKJ-12">
          <mxGeometry relative="1" as="geometry">
            <Array as="points">
              <mxPoint x="890" y="301" />
              <mxPoint x="890" y="301" />
            </Array>
          </mxGeometry>
        </mxCell>
        <mxCell id="9wrE17VdA23gmFdNsfKJ-59" value="gRPC" style="edgeStyle=orthogonalEdgeStyle;rounded=0;orthogonalLoop=1;jettySize=auto;html=1;exitX=0.5;exitY=0;exitDx=0;exitDy=0;exitPerimeter=0;entryX=1;entryY=0.5;entryDx=0;entryDy=0;entryPerimeter=0;fontSize=15;strokeWidth=2;startArrow=classic;startFill=1;" edge="1" parent="1" source="9wrE17VdA23gmFdNsfKJ-11" target="9wrE17VdA23gmFdNsfKJ-13">
          <mxGeometry relative="1" as="geometry">
            <Array as="points">
              <mxPoint x="785" y="218" />
              <mxPoint x="860" y="218" />
              <mxPoint x="860" y="135" />
            </Array>
          </mxGeometry>
        </mxCell>
        <mxCell id="9wrE17VdA23gmFdNsfKJ-60" value="HTTP" style="edgeStyle=orthogonalEdgeStyle;rounded=0;orthogonalLoop=1;jettySize=auto;html=1;entryX=0.5;entryY=0;entryDx=0;entryDy=0;entryPerimeter=0;fontSize=15;strokeWidth=2;" edge="1" parent="1" source="9wrE17VdA23gmFdNsfKJ-11" target="9wrE17VdA23gmFdNsfKJ-28">
          <mxGeometry relative="1" as="geometry">
            <Array as="points">
              <mxPoint x="850" y="320" />
              <mxPoint x="850" y="400" />
              <mxPoint x="785" y="400" />
            </Array>
          </mxGeometry>
        </mxCell>
        <mxCell id="9wrE17VdA23gmFdNsfKJ-77" value="HTTP" style="edgeStyle=orthogonalEdgeStyle;rounded=0;orthogonalLoop=1;jettySize=auto;html=1;exitX=0;exitY=0.21;exitDx=0;exitDy=0;exitPerimeter=0;entryX=1;entryY=0.21;entryDx=0;entryDy=0;entryPerimeter=0;fontSize=15;strokeWidth=2;" edge="1" parent="1" source="9wrE17VdA23gmFdNsfKJ-11" target="9jAOJpAXfEybDHtKabXW-7">
          <mxGeometry relative="1" as="geometry">
            <Array as="points">
              <mxPoint x="750" y="230" />
              <mxPoint x="458" y="230" />
            </Array>
          </mxGeometry>
        </mxCell>
        <mxCell id="9wrE17VdA23gmFdNsfKJ-11" value="summary-api" style="outlineConnect=0;dashed=0;verticalLabelPosition=bottom;verticalAlign=top;align=center;html=1;shape=mxgraph.aws3.ec2;fillColor=#F58534;gradientColor=none;fontSize=20;aspect=fixed;" vertex="1" parent="1">
          <mxGeometry x="750" y="266.25" width="70" height="70" as="geometry" />
        </mxCell>
        <mxCell id="9wrE17VdA23gmFdNsfKJ-12" value="" style="shape=image;verticalLabelPosition=bottom;labelBackgroundColor=default;verticalAlign=top;aspect=fixed;imageAspect=0;image=data:image/png,iVBORw0KGgoAAAANSUhEUgAAAoAAAAJOCAYAAAAnL7bnAAAAAXNSR0IArs4c6QAAAARnQU1BAACxjwv8YQUAAAAJcEhZcwAADsMAAA7DAcdvqGQAAAAZdEVYdFNvZnR3YXJlAHBhaW50Lm5ldCA0LjAuMTczbp9jAAAmdklEQVR4Xu3d3ZEbSbKg0RGBItTDfbiPJUKLQBEoAkWgBhSBIlCEEYEi8GEFoAi77t1ROzXBLBaA8EREJs4x+8zWdmcT6ApkwImfxL8AAAAAAAAAAAAAAAAAAAAAAAAAAAAAAAAAAAAAAAAAAAAAAAAAAAAAAAAAAAAAAAAAAAAAAAAAAAAAAAAAAAAAAAAAAAAAAAAAAAAAAAAAAAAAAAAAAAAAAAAAAAAAAAAAAAAAAAAAAAAAAAAAAAAAAAAAAAAAAAAAAAAAAAAAAAAAAAAAAAAAAAAAAAAAAAAAAAAAAAAAAAAAAAAAAAAAAAAAAAAAAAAAAAAAAAAAAAAAAAAAAAAAAAAAAAAAAAAAAAAAAAAAAAAAAAAAAAAAAAAAAAAAAAAAAAAAAAAAAAAAAAAAAAAAAAAAAAAAAAAAAAAAAAAAAIAx/+d//vev1ufoS+t79O9X/V9J2rnXe072sh/l3vSyT31oWxcA72kb56coN9OXzXVrA5akI/QjehkSc2/7q213AI8pN8K2KeareD+jrc1Tks5Y7nm59+Ue6BVD4Jxyc4s+Rl+j/Bfx1oYoSY9c7o25R+ZeaSAEjik2sOcoPxNj4JOk68u9M18hfG7bKsCacqOK8l+w3tKVpLpyT8291TAIrCE2pKco/5Vq6JOk/cu9Nvfcp7YNA9xPbD75OZX8EPPWBiVJ2r/8hvGnti0D7CM2mvwyR17KwKt9krROuSfnZ659eQSok5tKlG85/Iq2Nh9J0vxyj8692iAI3C43kbaZGPwk6TgZBIHbxMbhrV5JOnY5CPqMIPC+2CzyUi5+gk2SzlNeU9DP0AG/i80h3+7N60xtbR6SpOOXe7y3hYF/xIaQv0Xp7V5JOn+513s1EB5dbAT5QeGtTUKSdN6+tqcB4JHEyZ9v+fqdXkl63PI5wC+KwKOIEz6/6OHSLpKkfC7wljCcXZzoeXmXrU1AkvS4uVwMnFWc4L7lK0l6q2/t6QI4izyxuxNdkqQ+QyCcRZ7Q3QkuSdJbGQLh6PJE7k5sSZLeyxAIR5UncHdCS5J0aYZAOJo4cX3hQ5I0miEQjiJOWJd6kSRV9bk9vQCrihM1f9d36wSWJOnWPranGWA1cYI+RX7hQ5JUXT63PLenG2AlcXL6bV9J0l7lc8yH9pQDrCBOSl/6kCTtnS+FwCrihPS5P0nSvfJ5QJgtTsQP0c9XJ6YkSXuWnwf0VjDMFCeht34lSffue3saAu4tTkBv/UqSZvVXezoC7ilOPt/6lSTN6md7OgLuJU48v/YhSZrdl/a0BOwtTrj84ocLPkuSZucLIXAvcbJ9eXXySZI0s6/t6QnYS5xoXv2TJK3WU3uaAvYQJ5lX/yRJq+UXQmAvcYJ59U+StGI+Cwh7iZPr86uTTZKklfKNYNhDnFx+8k2StGq/2tMVUCVOrI/diSZJ0mp9ak9bQIU4qb53J5kkSav17/a0BYyKE+qpO8EkSVo1l4SBCnEy+fKHJOkouTA0VIiT6Ud3ckmStGo/29MXcKs4kZ67E0uSpNV7bk9jwC3iJPLLH5Kko+VtYBgRJ5G3fyVJR8vbwHCrOIF8+1eSdNS8DQy3iJPnU3cySZJ0lD63pzPgGnHyuPizJOmouSg03CJOnl/dySRJ0mFqT2fApeLEcfkXSdLR+6s9rQGXiJPGr39Iko7el/a0BlwiThqf/5MkHT2fA4RrxEnzszuJJEk6Wr/a0xrwnjhhPnQnkCRJR+2pPb0BfxIny1/dySNJ0lH72J7egD+Jk8Xv/0qSzpIvgsAl4mTxBRBJ0lnyRRC4RJ4s3ckjSdJR+9me3oA/2Th5JEk6bO3pDXhLnChP/YkjSdLBe25Pc8CWOEl8A1iSdLb8JBz8SZwkn7qTRpKko+ebwPAneZJ0J40kSUfPAAh/EifJt+6kkSTp6LkUDPxJniTdSSNJ0tEzAMKf5EnSnTSSJB091wKEP4mT5Fd30kiSdPja0xywZeukkSTp6LWnOWDL1kkjSdIJempPdcBreXJ0J4skSWfJxaBhS54c3ckiSdJZMgDCljw5upNFkqSzZACELXlydCeLJElnyQAIW/Lk6E4WSZLO0sf2dAe8FieHAVCSdNb8HjBsiZPDAChJOmsGQNgSJ8en7mSRJOksGQBhS54c3ckiSdJZMgDCljg58hXAf3f5bWBJ0tHK567++exTe7oDrhEnz3OUnxP8HOWrhXlC/Yi2Tj5JkvbqZ5TPQflclM9J+dz03J6ugHtpJ1+ehN8jrxpKkqrK55R8bslhz7X8YGVxkuarhTkQeoVQknRt+dyRA59X9eCo4gR+inIYzJfst050SZLyOSKHvqf29AGcRZzY+Vbxt2jr5JckPV759q63duERxMmerwoaBCXpccvnAK/2wSPKkz/Kf/1tbQ6SpPOV3941+AH//61hnxGUpPOWe/zHtu0D/CM2hg/R17ZRSJLOU+7tH9p2D/C72CTy1UDXEpSk45d7uVf9gMvEhpGfDXQNQUk6brmHu44fcJ3YOPIt4fyw8NbGIklatxz+vOUL3C42EZeLkaTjZPgDasRmYgiUpPUz/AG12sayteFIkuZn+APq5cbSNpitjUeSNK/8tq/hD1YVJ2h+uzYvs/Ixyh/dfinfYs0vXGT5f379/5b/+yV+pzHux3PkEjGStFZLfNs37sffz1fR6+ewPz2/5XNh/u/9MgnnEA/mfLXs5STIn1qreuUsr+SeJ1Eed8pQGLf7Kdq6b5Kk+/e5bc93Fbf7+jmu6pek8rkyj/f3c1zkVU3W1x6sebX1e79NmidLDmV3O1HabW7dF0nS/fp325Z3F7eVL2zkc03u//d8JyifU/O5dYl3wuBv8YDMt0TzJe0V3hbN+5D3ZfeX0uM2ciPwVrAkzSv34Hvs9/nRpdWe5wyD3F888F7+FVT1kvce5dvEu24McfzPr25PknTfvrTteBdx/JfBb+u2Vyifg/N5yNvE7CsfZFF+LuFIr3zt+gPgceyVh2BJOmu59+6yt+dxo3zu2LrdFcvn5HxuNghSrz24jjT4vS43il1eLo/j+kKIJN2/T20bLhXHzY81HfUf9n8Pgu0/BcbEgym/2HGWV7l2+aZYHNergJJ0v3627bdUHPcs/6Df7UUPHkA8eI72EvilfWv/iWXimF4FlKT7Vf7qXxxz5c/63Vp+W9nbwlwuHjD5EviZf/FijyHwqG+PS9KRyr22dKiJ451x+HspXw1c4iLZLC4eKPlq1iMMM1/bf3KJPF53fElSfaX/gI/jPcrVHHb5zCQnEQ+Q/KLH1gPnrH1s/+nD4lh5uYCt25Ak1VX2alYcK3+Gbes2zlr5u1+cQD4wugfKI5SvdJZdKzCOdea3zSVpdmVf/ohjPerF/A2B/Ec+ILoHyCNV9jNCcSwXhpak/Sr76E4c65F/ztMQyMMPfy+VvBUcx/E2sCTtV8nbv3GcvLzZ1vEfKUPgI4sHwKN95u+tKt9WcE1ASarvV9tmh8Wx7NP/VPplSA4iFt616/67km9IxXF8G1iS6it5xSqO82hf/Hgv3w5+JLHgeZ0/16377360P8+QOI7BWpLqq/pH+r+748p1Ah9DLHR+88m3VbcbPgniGD4HKEn12Z/3K98S94shZxeL7C3Kt6t6i8Grq5JUWNteh8RxPP+93ff2Z+KMYoF98+nPlXwZJI7jLQZJqqvkcl1xHF/++HNlP47AYmJxPfjfr+JtBt+ulqS6hr+tGsfw9u/7eSv4jGJRDSWX9bn9yW4Wx/BFEEmq60vbXm8Wx3Ch/ssa/luzkFjQ/JePz6Vd1vDnIOIY3mqXpLr+atvrzeIYfvTg8sp+IpXJYjE98C9v+GKjcQxvNUhSXRUDoKtfXJ5fCTmDWEjDyPUNfwZi45iSpBtq2+qQrePqj3kV8OhiEb36d30V/9r0lrskFdS21ZvFMXws5/q8CnhksYBe/but4SvOxzFcCkaSxhu+PFccwwB4W14FPKpYPN/8va2Kb5wZACVpvOFrAMYxPBfellcBjyoWz9uQt2UAlKQ1MgDOK2cI1wU8mlg016K7vYpLwfjspSSNZwCc2/BHorizWLTv3SLq8mw4krRGFfux58Pb+9H+jBxBLJgvf4xlAJSkNRr+HFocw0dyxvJlkKOIxfKTN2MZACVpjXwme37DP5HKncRiueL5WAZASVojA+D8vA18BLFQH7qF0/UZACVpjQyAa+Rt4NXFIvn273gGQElaIwPgGnkbeHWxSC4/Mp4BUJLWyAC4RsOXR2NnsUgu/jyeAVCS1sgAuEjtz8mKYoGe+wXTTRkAJWmNDIDr9Ff7k7KaWByXf6mpYgD04+OSNN7wZ8/iGAbAmoaHcXYSi+PzfzUZACVpjYZfdYpjGABr8jnAVcXi/OwWS7dlAJSkNTIArtOv9idlJbEwrv9X1/AAmDaOK0m6ruHrz8UxDIB1uR7gamJRvOJUlwFQkhaobadD4jgGwLo+tj8rq4hF8QWQuqoGQJuOJN3ez7adDonj2Ivr8kWQ1cSi+AJIXVUD4PfuuJKky/OP8fXyRZDVxKJ4gNdVtem4FqAk3d7Xtp0OieN4fqzrR/uzsopYFL8AUlfVAPixO64k6fI+te10SBzHAFhY+7Oyiq1F0s1VDYBP3XElSZf33LbTIXEcA2Btvgm8ilgM3wCurWQATHEsr8xK0g21bXRYHMsAWJufhFtFLka3OBqrcgD0RRBJur7KfdgAWFvJW/MUiMXwZYPaKjcel+eRpOsru9xIHMsAWJtLwawiF6NbHI1VOQA+d8eWJL1fyef/UhzLAFhbybezKRCL4RqAtZUNgCmO5zeaJenySn9zNo5nAKyt9DmSAbkY3eJorOoB8Gt3fEnS231r22eJOJ7nyNoMgKvIxegWR2NVD4DeBpakyyv9vdk4nufI2lwMehWxGN5irK38XzdxTGskSe9X8vu/r8UxDYDFtT8ts20tjobaYwD0bWBJer/yb5jGMQ2AxbU/LbNtLY6G2mMA/NDdhiTp98p/ZSKOaQAsrv1pmW1rcTTULh9wjeP6trYkvV3plz9exHENgPV9aH9eZtpYGI211wDot4El6e3Krv33WhzXAFifn4ObLRbBN0zr22UATHFsrwJK0u/t8upfimMbAOszAM6Wi9AtisbbcwDMVwF/vbotSdIOn/17Ecc2ANZnAJwtF6FbFI232wCY4vh+uk+S/tOuPy0WxzcA1mcAnC0XoVsUjbfrAJjiNlwXUJL+2Qt3/UJBHN8AWJ8BcLZchG5RNN49BkDrJkl3GCTiNgyA9RkAZ8tF6BZF4+0+AKa4HW8FS3rkdn3r90XcjgGwPgPgbLkI3aJovLsMgClvq7ttSXqE7vZ7snFb9tn6DICz5SJ0i6Lx7jkA5i+E/Hh125J09vJKCHe7kHDclgGwPgPgbLkI3aJovLsNgCluL6/l6NIwkh6h3Ot2ueDzW+L2DID1GQBny0XoFkXj3XUATHGbhkBJZ+/uw1+K2zQA1mcAnC0XoVsUjXf3ATDF7RoCJZ21KcNfits1ANZnAJwtF6FbFI03ZQBMcds5BPpMoKQzNW34S3HbBsD6DICz5SJ0i6Lxpg2AKW4/vxhiw5J0hvIftHf7wseWuH37aX0GwNlyEbpF0XhTB8AXcT9cJ1DSkbvLdf7eE/fDAFifAXC2XIRuUTTeEgNgivuS6+tn4yQdqdyzlhkQ4r4YAOszAM6Wi9AtisZbZgBMcX/yLWGvBko6QrlXTX3Ltxf3xwBYnwFwtlyEblE03lID4Iu4X0/Rt1f3U5JWKfemp7ZdLSXulwGwPgPgbLkI3aJovCUHwBdx/wyCklYp96Jp3/C9RNw/A2B9BsDZchG6RdF4Sw+AL+J+5iCYb7f4jKCke5aXdfkaLfmKXy/upwGwPgPgbLkI3aJovEMMgK/Fff4Y5b/EXUha0h7l3pJ7zMe27RxG3GcDYH0GwNlyEbpF0XiHGwBfi/ufw2D+69wFpSWNlHtI7iWHG/pei/tvAKzPADhbLkK3KBrv0APga/Hfkt8gzoEw3yrOTdDbxZK2ylf4co/IvSL3jKW+yTui/Xdt/Tfr9gyAs+UidIui8U4zAL4l/hvzcfMyGL4Mhy9t/U0kHbvX5/jLeZ97wOmfyNt/89bfRLdnAJwtF6FbFI13+gEQ4FHknt7t8RrPADhbLkK3KBrPAAhwErmnd3u8xjMAzpaL0C2KxjMAApxE7undHq/xDICz5SJ0i6LxDIAAJ5F7erfHazwD4Gy5CN2iaDwDIMBJ5J7e7fEazwA4Wy5CtygazwAIcBK5p3d7vMYzAM6Wi9AtisYzAAKcRO7p3R6v8QyAs+UidIui8QyAACeRe3q3x2s8A+BsuQjdomg8AyDASeSe3u3xGs8AOFsuQrcoGs8ACHASuad3e7zGMwDOlovQLYrGMwACnETu6d0er/EMgLPlInSLovEMgAAnkXt6t8drPAPgbLkI3aJoPAMgwEnknt7t8RrPADhbLkK3KBrPAAhwErmnd3u8xjMAzpaL0C2KxjMAApxE7undHq/xDICz5SJ0i6LxDIAAJ5F7erfHazwD4Gy5CN2iaLxDD4Bx//MxIUllte3lkOL+GwDrMwDOlovQLYrGW34AjPuY6/45+pb3N/oZbf23SFJlv6Lcc3Lv+RLlXvShbU1Lavd3679Ft2cAnC0XoVsUjbfcABj36Tn6Gv1o91GSVir3ptyjntu2tYy4TwbA+gyAs+UidIui8ZYYAON+PEW5oXp1T9KRyj0r966ntp1NFffDAFifAXC2XIRuUTTe1AEwbj8Hv3x7Zeu+SdKR+h5NHRbi9g2A9RkAZ8tF6BZF400ZAON2DX6SzloOglNeEYzbNQDWZwCcLRehWxSNd/cBMG4zv9CRH67euj+SdIZyj/vctr27ids0ANZnAJwtF6FbFI13twEwbutDlP8y3rofknTGciC72zeH2+1t3Q/dngFwtlyEblE03l0GwLidHP58q1fSI5Z7312+MRy3YwCszwA4Wy5Ctygab/cBMG4jL+vi272SHrl8S3j3ITBuwwBYnwFwtlyEblE03q4DYBzfK3+S9E85BO765ZA4vgGwPgPgbLkI3aJovL0HQMOfJP2n3BN3+0xgHNsAWJ8BcLZchG5RNN5uA2AcOy+OunWbkvTIfWvbZLk4tgGwPgPgbLkI3aJovF0GwDiutZKkt/vYtstScVwDYH0GwNlyEbpF0Xh7DYC+9CFJb5efByx/KziOaQCszwA4Wy5Ctygar3wAjGN+6W5DkvR7X9q2WSaOaQCszwA4Wy5Ctygar3QAjOPlt379yockvV/5q4BxPANgfQbA2XIRukXReNUDYP7M29btSJJ+r/RVwDieAbA+A+BsuQjdomi86gHQZ/8k6fJ+tu2zRBzPAFifAXC2XIRuUTRe2QAYx8pf/Ni6DUnS25V9IziOZQCszwA4Wy5Ctygar3IAdN0/Sbq+susCxrEMgPUZAGfLRegWReNVDoDe/pWk6/vVttFhcSwDYH0GwNlyEbpF0XglA2Acx9u/knR7z207HRLHMQDWZwCcLRehWxSNVzUAfuqOK0m6vM9tOx0SxzEA1mcAnC0XoVsUjVc1AH7rjitJurzvbTsdEscxANZnAJwtF6FbFI1XNQDadCTp9kouBxPHsRfXZwCcLRehWxSNVzUAbh1bknRhbTsdEscxANZnAJwtF6FbFI03PADGMZ66Y0qSrm/4iyBxDANgfQbA2XIRukXReBUDoHWRpPGGB404hgGwPgPgbLkI3aJoPAOgJK3R8DeB4xgGwPoMgLPlInSLovEqBsAv3TElSdf3pW2rN4tjGADrMwDOlovQLYrGMwBK0hoZANfMADhbLkK3KBrPAChJa2QAXDMD4Gy5CN2iaDwDoCStkQFwzQyAs+UidIui8QyAkrRGBsA1MwDOlovQLYrGMwBK0hoZANfMADhbLkK3KBrPAChJa2QAXDMD4Gy5CN2iaDwDoCStkQFwzQyAs+UidIui8QyAkrRGBsA1MwDOlovQLYrGqxgAP3bHlCRdnwFwzQyAs+UidIui8SoGQOsiSeMNDxpxDANgfQbA2XIRukXReBUD4HN3TEnS9RkA18wAOFsuQrcoGm94AEwbx5UkXdeHtqXeLI5hAKzPADhbLkK3KBqvagD82R1XknR5v9p2OiSOYwCszwA4Wy5Ctygar2oA/N4dV5J0eVV7sQGwPgPgbLkI3aJovKpNx6VgJOn2hr8BnOI4BsD6DICz5SJ0i6LxqgZAayNJt/exbadD4jgGwPoMgLPlInSLovFKBsAUx/rVHVuSdFnDXwBJcRwDYH0GwNlyEbpF0XiVA6DPAUrS9X1v2+iwOJYBsD4D4Gy5CN2iaLzKAfBTd2xJ0vt9atvosDiWAbA+A+BsuQjdomi8sgEwxfG8DSxJ11Xy9m+KYxkA6zMAzpaL0C2KxqseAL92x5ckvd23tn2WiOMZAOszAM6Wi9AtisarHgCfuuNLkt7uqW2fJeJ4BsD6DICz5SJ0i6LxSgfAFMf81t2GJOn3Sl/9S3FMA2B9BsDZchG6RdF4ewyA+SqgzwJK0p8rffUvxTENgPUZAGfLRegWReOVD4ApjuuXQSTp7Up++aMXxzUA1mcAnC0XoVsUjbfLAJjy2N1tSZL+539/tG2yXBzbvlufAXC2XIRuUTTengOgt4Il6b/LPfG5bZPl4tgGwPoMgLPlInSLovF2GwBTHP+5uz1JeuRKfvP3LXF8A2B9BsDZchG6RdF4uw6AKW7DL4RIUuEvfrwlbsMAWJ8BcLZYhA/domi83QfAFLeTQ6C3gyU9arsPfyluxwBYnwFwBRsLo7HuMgCmuK18O/jnq9uWpLO362f+enFbBsD6DIAr2FgYjXW3ATDF7eWruN9f3b4knbUcxsp+5/cS7Ta37otu765ryBs2FkZj3XUAfBG3+zHyaqCkM5av+t3lLd9e3K4BsLj2p2W2rcXRUFMGwBS3na8G5gWjfTZQ0hnKvSz3tGmvGMVtGwCLa39aZttaHA01bQB8EfchB8H8ksiPdp8k6Ujluxmfo+lvFcZ9MAAW1/60zLa1OBpq+gD4Wtyf/KLI18gwKGnlco/KvepuX/C4RNwfA2Bx7U/LbLEYBoPalhoAX4v7lq8M5mcF8y2V3NS8VSxpRrn35B6UA1/uSU9tm1pOu59b/w26sfanZbZYDA/u2pYdAN8S9zkvCJ7l28Y5HEpSZbm3/L3PtG3nMOI+e46s7Wf70zJbLIYHd22HGwAB2JZ7erfHayzPkavIxegWR2N5cAOcRO7p3R6vsTxHriIXo1scjeXBDXASuad3e7zG8hy5iliM/HzG1iLptjy4AU4i9/Ruj9dY39ufltliMQyAtRkAAU4i9/Ruj9dYX9qfltlyMbrF0VgGQICTyD292+M1lgFwFbEY+fX8rUXSbRkAAU4i9/Ruj9dYBsBVxGLktZm2Fkm3ZQAEOInc07s9XmN9bH9aZovFMADWZgAEOInc07s9XmMd7mLgpxWL8dQtjsYyAAKcRO7p3R6vsQyAK9lYIN2eARDgJHJP7/Z4jfWh/WlZwcYC6fYMgAAnkXt6t8droPZnZRWxKD/6RdLNGQABTiL39G6P1+39an9WVhGL4gFelwEQ4CRyT+/2eN2e58fVxKJ87xZJt+cBDnASuad3e7xuz/PjamJR/BpIXR7gACeRe3q3x+v2vrY/K6uIRfncLZJu7zADYNzXvARQXgcyfw0m/xGQ5avBueFJUkW5p7zsL7nX5J7z1Lah5cV9zf+Grb1e1+dXQFYTi+Ji0HUtOwDGffsY5SacG9qvaOv+S9K9yr3oa5R705KXB2n3ceu+6/r8CshqYlGeu0XS7S0zAMZ9+RDlv7h9xlPSEcq9KvesZYbBuC8GwLpcBHpFGwul25o+AMZ9yLd2v0Ve5ZN01HIPe27b2jRxHwyAdbkI9IpiYQwLNU0bAOO2Xwa/rfslSUcsB7Bpg2C7/a37pStrf1JWE4vjQV7T3QfAuM18qzc/R7N1fyTpDOUed/dXkOI2PTfWtOzn4x9eLI5Xjmq664M8bi8/v/nz1e1L0lnLve6urwbG7RkAa/re/qSsJhYnvx26tWi6rrsNgHFb+WHprfsgSWfuU9sGdxe3ZQCsySVgVhWL41IwNd1lAIzbce1GSY/ct7Yd7ipuxwBY092Gdq4Ui5NfINhaNF3X7gNg3IbhT5LuMATGbRgAa3IJmJVtLJiub9cBMI7vbV9J+k+7vrIUxzcAFtT+nKwqFskDfbzdBsA4tgt2S9Lv7fbqUhzb8+J4P9qfk1XFIvkm8Hi7DIBx3LzUi2/7StLv5XVsd7lETBzXADiebwCvLhbJZ8vG22sAdJ0/SXq7XT4PGMc1AI7nG8Cri0XyTeDxygfAOKa3fiXp/crfCo5jGgDH8wWQI9hYOF3XHgOgDUiS3s/+u2Z+A/gIYqF+dAun6yrdgOJ4XpWVpMsrfbUpjmcAHOtn+1OyulgsXwQZq3oAtB6SdHmlXziI4xkAx/IFkKOIxXKdubHKBsA4Vn7zd+s2JElv99S20WFxLAPgWJ/bn5LVxWL5RZCxKgdAw7gkXV/Z0BHHMgCO9dz+lBxBLFheU2lrIfV+lQPg9+7YkqT3K7vwcBzLADhQ+zNyFLFoBo/bqxwAt44vSXq/km+exnEMgLdX+pl47iAWzQWhb6/kAR/H8e1fSbq9j207HRLHMQDens//HU0sms8B3l7VAPilO64k6fK+tu10SBzHAHh7Pv93RLFwfnf2tqoGQJuOJN2evXhuv9qfkKOJxXP9uduq2nQM4JI0UNtOh8RxDIC3tctvM3MHsXgfu8XUZVUNgFvHliRd3vAXQeIYBsDb+tT+hBzRxoLq/YYHwDiGL4BI0njDPwsXxzAA3pbf/z2yWECXg7k+A6AkrdHwN4HjGAbA6yt5J4yJYhH9EsX1VQyA/u6SNN6Xtq3eLI5hALw+l385ulhEv0V7fRUDoEvASNJ4BsA5lf0WMxPFQnob+LoMgJK0RgbA+1f2M3xMFovp7cjrMgBK0hoZAO+fb/+eSSzor26B9XYGQElaIwPg/fPt3zOJBXVR6MszAErSGhkA75uLP59NLOpzt8h6OwOgJK2RAfC+DV93kQXFwv7oFlrbGQAlaY0MgPfrZ/uTcTaxuL4MclkGQElao4oB8Gt3TG3n2n9nFgvsyyDv97X9uW4Wx/jcHVOSdH0VA6B/kL9fzga+/HFmscBOhPer2HD8FJwkjTd8SZI4hue99xt+3mNxscj5yyBeBfxzwy+DxzEMgJI03vCXEuIYH7tj6vf88scjiIX2r6E/V7Hh+Ak+SRrvuW2rN4tj+Af5n3Ppl0cRi+1VwD83vOGkjeNKkq6obadD4jj+Qf7nvPr3SGLBvQr4Ru1PNCyO5dIDknR7Zb9JG8fyosd2Pvv3aGLR819EP189CPRPw5eAeRHHcukBSbq9srcm41j+Qf57vvn7qGLhXRfw94YvAfMijuXvK0m3V3ZdujiWd71+z3X/Hlk8APyr6L/72P40w+JYT92xJUmXV/J57BTH8kWQ/67s7XUOKh4EfiP4vyt9OTyO5+f3JOn6yn+WLI7pc4D/qWy45sDigeCl8X/63v4kZeKYPgcoSddX9nGcF3HMb91tPGrlf1sOLB4QXqkquOJ8L47pbWBJur7yV6jimC4I/c9zvS9+8B/xgMhB5ZFfHt/t21BxXJ+zlKTLK3/790Ueu7utR8tbv/wuHhiP/K3V3V4Sj2P7NrAkXV75uzEv4tiP/JGn3f6unEA8QB71M2u7Xgk9ju+ai5L0fru9+pfi+I/6S1h+7o33xQPle/fAOXu7Xwk9bsOrgJL0fru/ShW38WivArrkC5eJB0v+C+lRvhRytyuhx+34LKAkvd1dBpW4nUf6JSxf+uA6+YBpD5ytB9SZKrvw83vitlxzUZLe7m5fUIjbeoQLQxv+uE0+cNoDaOuBdYbu/pmIuM3P3X2QJN3hozi9uM0zf+bd8MeYfAC1B9LWA+zITTs54nZdjFSS/lP5RfgvFbft+Q3ekg+k6ExfDMnPfkw9OeL2z7jpSNK1TR1W8rbbfdi6b0csP2tu+KNWPKjO8HJ5Dn/TL4QZ9+FRPmMpSW+1xCtVeR/afdm6j0fKT7yxn3iA5U/pHPUaSktsNi/yvkTeDpb0iOW7Sqvtx0cdAvM5+W5faOSBxQMtT5SjvSWcg9aSL4vH/XrkK9NLerzu/oWPS8V9O9o7XfmW764/ZAC/iQddfo1+9WspHeJfRnEf8xIx3hKWdOby+eKvtu0tK+5jvtO1+nNb3j+v+jFXPAjzVy5WPFnyX3KH+jBs3N+8TMwj/kyRpPOWe9qyr/ptifub73TluzOr7ceH+1vyAOJBucIgmCdHDn6HfUk87vvLxrP6v0Al6U/9PaxEh/qH+Gt539t/w+xBMJ8P8jn2sH9LHkA8QPOt4fzM3T1PmHz79HQnR/z35FsRj/bbzJKOXe5Zu/+m7z3Ff08Ogvkcc8/9OJ9D87l0+bfN4Tf5wI3yFbnqz7flv4byxHiIfxHlf2OUw+Aef0tJGin3pNyPc496lP04n3vyv7n6nZr8W+Y+7/N9nEs8qHMgzM+55Uvq+e2l7K1XCvP//uV/kydE/v/J//9eAg/tb9H/Lb1tLGmPcm952Wdyz8m9x34c8m/Q/haXPrdlL/+bfG77+2/ZDgcAAAAAAAAAAAAAAAAAAAAAAAAAAAAAAAAAAAAAAAAAAAAAAAAAAAAAAAAAAAAAAAAAAAAAAAAAAAAAAAAAAAAAAAAAAAAAAAAAAAAAAAAAAAAAAAAAAAAAAAAAAAAAAAAAAAAAAAAAAAAAAAAAAAAAAAAAAAAAAAAAAAAAAAAAAAAAAAAAAAAAAAAAAAAAAAAAAAAAAAAAAAAAAAAAAAAAAAAAAAAAAAAAAAAAAAAAAAAAAAAAAAAAAAAAAAAAAAAAAAAAAAAAAAAAAAAAAAAAAAAAAAAAAAAAAAAAAAAAAAAAAAAAAAAAAAAAAAAAAAAAAAAAAAAAAAAAAAAAAAAAAAAAAAAAAAAAAAAAAAAAAAAAAAAAAAAAAAAAAAAAAAAAAAAAAAAAAAAAAAAAAAAAAAAAAAAAAAAAAAAAAAAAAAAAAAAAAAAAAAAAAAAAwEz/+tf/A6eZAjBN5ry+AAAAAElFTkSuQmCC;" vertex="1" parent="1">
          <mxGeometry x="940" y="262.07" width="85" height="78.36" as="geometry" />
        </mxCell>
        <mxCell id="9wrE17VdA23gmFdNsfKJ-13" value="summary-model" style="outlineConnect=0;dashed=0;verticalLabelPosition=bottom;verticalAlign=top;align=center;html=1;shape=mxgraph.aws3.ec2;fillColor=#F58534;gradientColor=none;fontSize=20;aspect=fixed;" vertex="1" parent="1">
          <mxGeometry x="742" y="100" width="70" height="70" as="geometry" />
        </mxCell>
        <mxCell id="9wrE17VdA23gmFdNsfKJ-70" value="HTTP" style="edgeStyle=orthogonalEdgeStyle;rounded=0;orthogonalLoop=1;jettySize=auto;html=1;entryX=1;entryY=0.5;entryDx=0;entryDy=0;entryPerimeter=0;strokeWidth=2;fontSize=15;" edge="1" parent="1" source="9wrE17VdA23gmFdNsfKJ-24" target="9wrE17VdA23gmFdNsfKJ-34">
          <mxGeometry relative="1" as="geometry" />
        </mxCell>
        <mxCell id="9wrE17VdA23gmFdNsfKJ-24" value="" style="shape=mxgraph.signs.tech.mail;html=1;pointerEvents=1;fillColor=#000000;strokeColor=none;verticalLabelPosition=bottom;verticalAlign=top;align=center;aspect=fixed;" vertex="1" parent="1">
          <mxGeometry x="927.5" y="795.8399999999999" width="70" height="46.67" as="geometry" />
        </mxCell>
        <mxCell id="9wrE17VdA23gmFdNsfKJ-27" value="" style="shape=image;verticalLabelPosition=bottom;labelBackgroundColor=default;verticalAlign=top;aspect=fixed;imageAspect=0;image=data:image/png,iVBORw0KGgoAAAANSUhEUgAAAoAAAAJOCAYAAAAnL7bnAAAAAXNSR0IArs4c6QAAAARnQU1BAACxjwv8YQUAAAAJcEhZcwAADsMAAA7DAcdvqGQAAAAZdEVYdFNvZnR3YXJlAHBhaW50Lm5ldCA0LjAuMTczbp9jAAAmdklEQVR4Xu3d3ZEbSbKg0RGBItTDfbiPJUKLQBEoAkWgBhSBIlCEEYEi8GEFoAi77t1ROzXBLBaA8EREJs4x+8zWdmcT6ApkwImfxL8AAAAAAAAAAAAAAAAAAAAAAAAAAAAAAAAAAAAAAAAAAAAAAAAAAAAAAAAAAAAAAAAAAAAAAAAAAAAAAAAAAAAAAAAAAAAAAAAAAAAAAAAAAAAAAAAAAAAAAAAAAAAAAAAAAAAAAAAAAAAAAAAAAAAAAAAAAAAAAAAAAAAAAAAAAAAAAAAAAAAAAAAAAAAAAAAAAAAAAAAAAAAAAAAAAAAAAAAAAAAAAAAAAAAAAAAAAAAAAAAAAAAAAAAAAAAAAAAAAAAAAAAAAAAAAAAAAAAAAAAAAAAAAAAAAAAAAAAAAAAAAAAAAAAAAAAAAAAAAAAAAAAAAAAAAIAx/+d//vev1ufoS+t79O9X/V9J2rnXe072sh/l3vSyT31oWxcA72kb56coN9OXzXVrA5akI/QjehkSc2/7q213AI8pN8K2KeareD+jrc1Tks5Y7nm59+Ue6BVD4Jxyc4s+Rl+j/Bfx1oYoSY9c7o25R+ZeaSAEjik2sOcoPxNj4JOk68u9M18hfG7bKsCacqOK8l+w3tKVpLpyT8291TAIrCE2pKco/5Vq6JOk/cu9Nvfcp7YNA9xPbD75OZX8EPPWBiVJ2r/8hvGnti0D7CM2mvwyR17KwKt9krROuSfnZ659eQSok5tKlG85/Iq2Nh9J0vxyj8692iAI3C43kbaZGPwk6TgZBIHbxMbhrV5JOnY5CPqMIPC+2CzyUi5+gk2SzlNeU9DP0AG/i80h3+7N60xtbR6SpOOXe7y3hYF/xIaQv0Xp7V5JOn+513s1EB5dbAT5QeGtTUKSdN6+tqcB4JHEyZ9v+fqdXkl63PI5wC+KwKOIEz6/6OHSLpKkfC7wljCcXZzoeXmXrU1AkvS4uVwMnFWc4L7lK0l6q2/t6QI4izyxuxNdkqQ+QyCcRZ7Q3QkuSdJbGQLh6PJE7k5sSZLeyxAIR5UncHdCS5J0aYZAOJo4cX3hQ5I0miEQjiJOWJd6kSRV9bk9vQCrihM1f9d36wSWJOnWPranGWA1cYI+RX7hQ5JUXT63PLenG2AlcXL6bV9J0l7lc8yH9pQDrCBOSl/6kCTtnS+FwCrihPS5P0nSvfJ5QJgtTsQP0c9XJ6YkSXuWnwf0VjDMFCeht34lSffue3saAu4tTkBv/UqSZvVXezoC7ilOPt/6lSTN6md7OgLuJU48v/YhSZrdl/a0BOwtTrj84ocLPkuSZucLIXAvcbJ9eXXySZI0s6/t6QnYS5xoXv2TJK3WU3uaAvYQJ5lX/yRJq+UXQmAvcYJ59U+StGI+Cwh7iZPr86uTTZKklfKNYNhDnFx+8k2StGq/2tMVUCVOrI/diSZJ0mp9ak9bQIU4qb53J5kkSav17/a0BYyKE+qpO8EkSVo1l4SBCnEy+fKHJOkouTA0VIiT6Ud3ckmStGo/29MXcKs4kZ67E0uSpNV7bk9jwC3iJPLLH5Kko+VtYBgRJ5G3fyVJR8vbwHCrOIF8+1eSdNS8DQy3iJPnU3cySZJ0lD63pzPgGnHyuPizJOmouSg03CJOnl/dySRJ0mFqT2fApeLEcfkXSdLR+6s9rQGXiJPGr39Iko7el/a0BlwiThqf/5MkHT2fA4RrxEnzszuJJEk6Wr/a0xrwnjhhPnQnkCRJR+2pPb0BfxIny1/dySNJ0lH72J7egD+Jk8Xv/0qSzpIvgsAl4mTxBRBJ0lnyRRC4RJ4s3ckjSdJR+9me3oA/2Th5JEk6bO3pDXhLnChP/YkjSdLBe25Pc8CWOEl8A1iSdLb8JBz8SZwkn7qTRpKko+ebwPAneZJ0J40kSUfPAAh/EifJt+6kkSTp6LkUDPxJniTdSSNJ0tEzAMKf5EnSnTSSJB091wKEP4mT5Fd30kiSdPja0xywZeukkSTp6LWnOWDL1kkjSdIJempPdcBreXJ0J4skSWfJxaBhS54c3ckiSdJZMgDCljw5upNFkqSzZACELXlydCeLJElnyQAIW/Lk6E4WSZLO0sf2dAe8FieHAVCSdNb8HjBsiZPDAChJOmsGQNgSJ8en7mSRJOksGQBhS54c3ckiSdJZMgDCljg58hXAf3f5bWBJ0tHK567++exTe7oDrhEnz3OUnxP8HOWrhXlC/Yi2Tj5JkvbqZ5TPQflclM9J+dz03J6ugHtpJ1+ehN8jrxpKkqrK55R8bslhz7X8YGVxkuarhTkQeoVQknRt+dyRA59X9eCo4gR+inIYzJfst050SZLyOSKHvqf29AGcRZzY+Vbxt2jr5JckPV759q63duERxMmerwoaBCXpccvnAK/2wSPKkz/Kf/1tbQ6SpPOV3941+AH//61hnxGUpPOWe/zHtu0D/CM2hg/R17ZRSJLOU+7tH9p2D/C72CTy1UDXEpSk45d7uVf9gMvEhpGfDXQNQUk6brmHu44fcJ3YOPIt4fyw8NbGIklatxz+vOUL3C42EZeLkaTjZPgDasRmYgiUpPUz/AG12sayteFIkuZn+APq5cbSNpitjUeSNK/8tq/hD1YVJ2h+uzYvs/Ixyh/dfinfYs0vXGT5f379/5b/+yV+pzHux3PkEjGStFZLfNs37sffz1fR6+ewPz2/5XNh/u/9MgnnEA/mfLXs5STIn1qreuUsr+SeJ1Eed8pQGLf7Kdq6b5Kk+/e5bc93Fbf7+jmu6pek8rkyj/f3c1zkVU3W1x6sebX1e79NmidLDmV3O1HabW7dF0nS/fp325Z3F7eVL2zkc03u//d8JyifU/O5dYl3wuBv8YDMt0TzJe0V3hbN+5D3ZfeX0uM2ciPwVrAkzSv34Hvs9/nRpdWe5wyD3F888F7+FVT1kvce5dvEu24McfzPr25PknTfvrTteBdx/JfBb+u2Vyifg/N5yNvE7CsfZFF+LuFIr3zt+gPgceyVh2BJOmu59+6yt+dxo3zu2LrdFcvn5HxuNghSrz24jjT4vS43il1eLo/j+kKIJN2/T20bLhXHzY81HfUf9n8Pgu0/BcbEgym/2HGWV7l2+aZYHNergJJ0v3627bdUHPcs/6Df7UUPHkA8eI72EvilfWv/iWXimF4FlKT7Vf7qXxxz5c/63Vp+W9nbwlwuHjD5EviZf/FijyHwqG+PS9KRyr22dKiJ451x+HspXw1c4iLZLC4eKPlq1iMMM1/bf3KJPF53fElSfaX/gI/jPcrVHHb5zCQnEQ+Q/KLH1gPnrH1s/+nD4lh5uYCt25Ak1VX2alYcK3+Gbes2zlr5u1+cQD4wugfKI5SvdJZdKzCOdea3zSVpdmVf/ohjPerF/A2B/Ec+ILoHyCNV9jNCcSwXhpak/Sr76E4c65F/ztMQyMMPfy+VvBUcx/E2sCTtV8nbv3GcvLzZ1vEfKUPgI4sHwKN95u+tKt9WcE1ASarvV9tmh8Wx7NP/VPplSA4iFt616/67km9IxXF8G1iS6it5xSqO82hf/Hgv3w5+JLHgeZ0/16377360P8+QOI7BWpLqq/pH+r+748p1Ah9DLHR+88m3VbcbPgniGD4HKEn12Z/3K98S94shZxeL7C3Kt6t6i8Grq5JUWNteh8RxPP+93ff2Z+KMYoF98+nPlXwZJI7jLQZJqqvkcl1xHF/++HNlP47AYmJxPfjfr+JtBt+ulqS6hr+tGsfw9u/7eSv4jGJRDSWX9bn9yW4Wx/BFEEmq60vbXm8Wx3Ch/ssa/luzkFjQ/JePz6Vd1vDnIOIY3mqXpLr+atvrzeIYfvTg8sp+IpXJYjE98C9v+GKjcQxvNUhSXRUDoKtfXJ5fCTmDWEjDyPUNfwZi45iSpBtq2+qQrePqj3kV8OhiEb36d30V/9r0lrskFdS21ZvFMXws5/q8CnhksYBe/but4SvOxzFcCkaSxhu+PFccwwB4W14FPKpYPN/8va2Kb5wZACVpvOFrAMYxPBfellcBjyoWz9uQt2UAlKQ1MgDOK2cI1wU8mlg016K7vYpLwfjspSSNZwCc2/BHorizWLTv3SLq8mw4krRGFfux58Pb+9H+jBxBLJgvf4xlAJSkNRr+HFocw0dyxvJlkKOIxfKTN2MZACVpjXwme37DP5HKncRiueL5WAZASVojA+D8vA18BLFQH7qF0/UZACVpjQyAa+Rt4NXFIvn273gGQElaIwPgGnkbeHWxSC4/Mp4BUJLWyAC4RsOXR2NnsUgu/jyeAVCS1sgAuEjtz8mKYoGe+wXTTRkAJWmNDIDr9Ff7k7KaWByXf6mpYgD04+OSNN7wZ8/iGAbAmoaHcXYSi+PzfzUZACVpjYZfdYpjGABr8jnAVcXi/OwWS7dlAJSkNTIArtOv9idlJbEwrv9X1/AAmDaOK0m6ruHrz8UxDIB1uR7gamJRvOJUlwFQkhaobadD4jgGwLo+tj8rq4hF8QWQuqoGQJuOJN3ez7adDonj2Ivr8kWQ1cSi+AJIXVUD4PfuuJKky/OP8fXyRZDVxKJ4gNdVtem4FqAk3d7Xtp0OieN4fqzrR/uzsopYFL8AUlfVAPixO64k6fI+te10SBzHAFhY+7Oyiq1F0s1VDYBP3XElSZf33LbTIXEcA2Btvgm8ilgM3wCurWQATHEsr8xK0g21bXRYHMsAWJufhFtFLka3OBqrcgD0RRBJur7KfdgAWFvJW/MUiMXwZYPaKjcel+eRpOsru9xIHMsAWJtLwawiF6NbHI1VOQA+d8eWJL1fyef/UhzLAFhbybezKRCL4RqAtZUNgCmO5zeaJenySn9zNo5nAKyt9DmSAbkY3eJorOoB8Gt3fEnS231r22eJOJ7nyNoMgKvIxegWR2NVD4DeBpakyyv9vdk4nufI2lwMehWxGN5irK38XzdxTGskSe9X8vu/r8UxDYDFtT8ts20tjobaYwD0bWBJer/yb5jGMQ2AxbU/LbNtLY6G2mMA/NDdhiTp98p/ZSKOaQAsrv1pmW1rcTTULh9wjeP6trYkvV3plz9exHENgPV9aH9eZtpYGI211wDot4El6e3Krv33WhzXAFifn4ObLRbBN0zr22UATHFsrwJK0u/t8upfimMbAOszAM6Wi9AtisbbcwDMVwF/vbotSdIOn/17Ecc2ANZnAJwtF6FbFI232wCY4vh+uk+S/tOuPy0WxzcA1mcAnC0XoVsUjbfrAJjiNlwXUJL+2Qt3/UJBHN8AWJ8BcLZchG5RNN49BkDrJkl3GCTiNgyA9RkAZ8tF6BZF4+0+AKa4HW8FS3rkdn3r90XcjgGwPgPgbLkI3aJovLsMgClvq7ttSXqE7vZ7snFb9tn6DICz5SJ0i6Lx7jkA5i+E/Hh125J09vJKCHe7kHDclgGwPgPgbLkI3aJovLsNgCluL6/l6NIwkh6h3Ot2ueDzW+L2DID1GQBny0XoFkXj3XUATHGbhkBJZ+/uw1+K2zQA1mcAnC0XoVsUjXf3ATDF7RoCJZ21KcNfits1ANZnAJwtF6FbFI03ZQBMcds5BPpMoKQzNW34S3HbBsD6DICz5SJ0i6Lxpg2AKW4/vxhiw5J0hvIftHf7wseWuH37aX0GwNlyEbpF0XhTB8AXcT9cJ1DSkbvLdf7eE/fDAFifAXC2XIRuUTTeEgNgivuS6+tn4yQdqdyzlhkQ4r4YAOszAM6Wi9AtisZbZgBMcX/yLWGvBko6QrlXTX3Ltxf3xwBYnwFwtlyEblE03lID4Iu4X0/Rt1f3U5JWKfemp7ZdLSXulwGwPgPgbLkI3aJovCUHwBdx/wyCklYp96Jp3/C9RNw/A2B9BsDZchG6RdF4Sw+AL+J+5iCYb7f4jKCke5aXdfkaLfmKXy/upwGwPgPgbLkI3aJovEMMgK/Fff4Y5b/EXUha0h7l3pJ7zMe27RxG3GcDYH0GwNlyEbpF0XiHGwBfi/ufw2D+69wFpSWNlHtI7iWHG/pei/tvAKzPADhbLkK3KBrv0APga/Hfkt8gzoEw3yrOTdDbxZK2ylf4co/IvSL3jKW+yTui/Xdt/Tfr9gyAs+UidIui8U4zAL4l/hvzcfMyGL4Mhy9t/U0kHbvX5/jLeZ97wOmfyNt/89bfRLdnAJwtF6FbFI13+gEQ4FHknt7t8RrPADhbLkK3KBrPAAhwErmnd3u8xjMAzpaL0C2KxjMAApxE7undHq/xDICz5SJ0i6LxDIAAJ5F7erfHazwD4Gy5CN2iaDwDIMBJ5J7e7fEazwA4Wy5CtygazwAIcBK5p3d7vMYzAM6Wi9AtisYzAAKcRO7p3R6v8QyAs+UidIui8QyAACeRe3q3x2s8A+BsuQjdomg8AyDASeSe3u3xGs8AOFsuQrcoGs8ACHASuad3e7zGMwDOlovQLYrGMwACnETu6d0er/EMgLPlInSLovEMgAAnkXt6t8drPAPgbLkI3aJoPAMgwEnknt7t8RrPADhbLkK3KBrPAAhwErmnd3u8xjMAzpaL0C2KxjMAApxE7undHq/xDICz5SJ0i6LxDIAAJ5F7erfHazwD4Gy5CN2iaLxDD4Bx//MxIUllte3lkOL+GwDrMwDOlovQLYrGW34AjPuY6/45+pb3N/oZbf23SFJlv6Lcc3Lv+RLlXvShbU1Lavd3679Ft2cAnC0XoVsUjbfcABj36Tn6Gv1o91GSVir3ptyjntu2tYy4TwbA+gyAs+UidIui8ZYYAON+PEW5oXp1T9KRyj0r966ntp1NFffDAFifAXC2XIRuUTTe1AEwbj8Hv3x7Zeu+SdKR+h5NHRbi9g2A9RkAZ8tF6BZF400ZAON2DX6SzloOglNeEYzbNQDWZwCcLRehWxSNd/cBMG4zv9CRH67euj+SdIZyj/vctr27ids0ANZnAJwtF6FbFI13twEwbutDlP8y3rofknTGciC72zeH2+1t3Q/dngFwtlyEblE03l0GwLidHP58q1fSI5Z7312+MRy3YwCszwA4Wy5Ctygab/cBMG4jL+vi272SHrl8S3j3ITBuwwBYnwFwtlyEblE03q4DYBzfK3+S9E85BO765ZA4vgGwPgPgbLkI3aJovL0HQMOfJP2n3BN3+0xgHNsAWJ8BcLZchG5RNN5uA2AcOy+OunWbkvTIfWvbZLk4tgGwPgPgbLkI3aJovF0GwDiutZKkt/vYtstScVwDYH0GwNlyEbpF0Xh7DYC+9CFJb5efByx/KziOaQCszwA4Wy5Ctygar3wAjGN+6W5DkvR7X9q2WSaOaQCszwA4Wy5Ctygar3QAjOPlt379yockvV/5q4BxPANgfQbA2XIRukXReNUDYP7M29btSJJ+r/RVwDieAbA+A+BsuQjdomi86gHQZ/8k6fJ+tu2zRBzPAFifAXC2XIRuUTRe2QAYx8pf/Ni6DUnS25V9IziOZQCszwA4Wy5Ctygar3IAdN0/Sbq+susCxrEMgPUZAGfLRegWReNVDoDe/pWk6/vVttFhcSwDYH0GwNlyEbpF0XglA2Acx9u/knR7z207HRLHMQDWZwCcLRehWxSNVzUAfuqOK0m6vM9tOx0SxzEA1mcAnC0XoVsUjVc1AH7rjitJurzvbTsdEscxANZnAJwtF6FbFI1XNQDadCTp9kouBxPHsRfXZwCcLRehWxSNVzUAbh1bknRhbTsdEscxANZnAJwtF6FbFI03PADGMZ66Y0qSrm/4iyBxDANgfQbA2XIRukXReBUDoHWRpPGGB404hgGwPgPgbLkI3aJoPAOgJK3R8DeB4xgGwPoMgLPlInSLovEqBsAv3TElSdf3pW2rN4tjGADrMwDOlovQLYrGMwBK0hoZANfMADhbLkK3KBrPAChJa2QAXDMD4Gy5CN2iaDwDoCStkQFwzQyAs+UidIui8QyAkrRGBsA1MwDOlovQLYrGMwBK0hoZANfMADhbLkK3KBrPAChJa2QAXDMD4Gy5CN2iaDwDoCStkQFwzQyAs+UidIui8QyAkrRGBsA1MwDOlovQLYrGqxgAP3bHlCRdnwFwzQyAs+UidIui8SoGQOsiSeMNDxpxDANgfQbA2XIRukXReBUD4HN3TEnS9RkA18wAOFsuQrcoGm94AEwbx5UkXdeHtqXeLI5hAKzPADhbLkK3KBqvagD82R1XknR5v9p2OiSOYwCszwA4Wy5Ctygar2oA/N4dV5J0eVV7sQGwPgPgbLkI3aJovKpNx6VgJOn2hr8BnOI4BsD6DICz5SJ0i6LxqgZAayNJt/exbadD4jgGwPoMgLPlInSLovFKBsAUx/rVHVuSdFnDXwBJcRwDYH0GwNlyEbpF0XiVA6DPAUrS9X1v2+iwOJYBsD4D4Gy5CN2iaLzKAfBTd2xJ0vt9atvosDiWAbA+A+BsuQjdomi8sgEwxfG8DSxJ11Xy9m+KYxkA6zMAzpaL0C2KxqseAL92x5ckvd23tn2WiOMZAOszAM6Wi9AtisarHgCfuuNLkt7uqW2fJeJ4BsD6DICz5SJ0i6LxSgfAFMf81t2GJOn3Sl/9S3FMA2B9BsDZchG6RdF4ewyA+SqgzwJK0p8rffUvxTENgPUZAGfLRegWReOVD4ApjuuXQSTp7Up++aMXxzUA1mcAnC0XoVsUjbfLAJjy2N1tSZL+539/tG2yXBzbvlufAXC2XIRuUTTengOgt4Il6b/LPfG5bZPl4tgGwPoMgLPlInSLovF2GwBTHP+5uz1JeuRKfvP3LXF8A2B9BsDZchG6RdF4uw6AKW7DL4RIUuEvfrwlbsMAWJ8BcLZYhA/domi83QfAFLeTQ6C3gyU9arsPfyluxwBYnwFwBRsLo7HuMgCmuK18O/jnq9uWpLO362f+enFbBsD6DIAr2FgYjXW3ATDF7eWruN9f3b4knbUcxsp+5/cS7Ta37otu765ryBs2FkZj3XUAfBG3+zHyaqCkM5av+t3lLd9e3K4BsLj2p2W2rcXRUFMGwBS3na8G5gWjfTZQ0hnKvSz3tGmvGMVtGwCLa39aZttaHA01bQB8EfchB8H8ksiPdp8k6Ujluxmfo+lvFcZ9MAAW1/60zLa1OBpq+gD4Wtyf/KLI18gwKGnlco/KvepuX/C4RNwfA2Bx7U/LbLEYBoPalhoAX4v7lq8M5mcF8y2V3NS8VSxpRrn35B6UA1/uSU9tm1pOu59b/w26sfanZbZYDA/u2pYdAN8S9zkvCJ7l28Y5HEpSZbm3/L3PtG3nMOI+e46s7Wf70zJbLIYHd22HGwAB2JZ7erfHayzPkavIxegWR2N5cAOcRO7p3R6vsTxHriIXo1scjeXBDXASuad3e7zG8hy5iliM/HzG1iLptjy4AU4i9/Ruj9dY39ufltliMQyAtRkAAU4i9/Ruj9dYX9qfltlyMbrF0VgGQICTyD292+M1lgFwFbEY+fX8rUXSbRkAAU4i9/Ruj9dYBsBVxGLktZm2Fkm3ZQAEOInc07s9XmN9bH9aZovFMADWZgAEOInc07s9XmMd7mLgpxWL8dQtjsYyAAKcRO7p3R6vsQyAK9lYIN2eARDgJHJP7/Z4jfWh/WlZwcYC6fYMgAAnkXt6t8droPZnZRWxKD/6RdLNGQABTiL39G6P1+39an9WVhGL4gFelwEQ4CRyT+/2eN2e58fVxKJ87xZJt+cBDnASuad3e7xuz/PjamJR/BpIXR7gACeRe3q3x+v2vrY/K6uIRfncLZJu7zADYNzXvARQXgcyfw0m/xGQ5avBueFJUkW5p7zsL7nX5J7z1Lah5cV9zf+Grb1e1+dXQFYTi+Ji0HUtOwDGffsY5SacG9qvaOv+S9K9yr3oa5R705KXB2n3ceu+6/r8CshqYlGeu0XS7S0zAMZ9+RDlv7h9xlPSEcq9KvesZYbBuC8GwLpcBHpFGwul25o+AMZ9yLd2v0Ve5ZN01HIPe27b2jRxHwyAdbkI9IpiYQwLNU0bAOO2Xwa/rfslSUcsB7Bpg2C7/a37pStrf1JWE4vjQV7T3QfAuM18qzc/R7N1fyTpDOUed/dXkOI2PTfWtOzn4x9eLI5Xjmq664M8bi8/v/nz1e1L0lnLve6urwbG7RkAa/re/qSsJhYnvx26tWi6rrsNgHFb+WHprfsgSWfuU9sGdxe3ZQCsySVgVhWL41IwNd1lAIzbce1GSY/ct7Yd7ipuxwBY092Gdq4Ui5NfINhaNF3X7gNg3IbhT5LuMATGbRgAa3IJmJVtLJiub9cBMI7vbV9J+k+7vrIUxzcAFtT+nKwqFskDfbzdBsA4tgt2S9Lv7fbqUhzb8+J4P9qfk1XFIvkm8Hi7DIBx3LzUi2/7StLv5XVsd7lETBzXADiebwCvLhbJZ8vG22sAdJ0/SXq7XT4PGMc1AI7nG8Cri0XyTeDxygfAOKa3fiXp/crfCo5jGgDH8wWQI9hYOF3XHgOgDUiS3s/+u2Z+A/gIYqF+dAun6yrdgOJ4XpWVpMsrfbUpjmcAHOtn+1OyulgsXwQZq3oAtB6SdHmlXziI4xkAx/IFkKOIxXKdubHKBsA4Vn7zd+s2JElv99S20WFxLAPgWJ/bn5LVxWL5RZCxKgdAw7gkXV/Z0BHHMgCO9dz+lBxBLFheU2lrIfV+lQPg9+7YkqT3K7vwcBzLADhQ+zNyFLFoBo/bqxwAt44vSXq/km+exnEMgLdX+pl47iAWzQWhb6/kAR/H8e1fSbq9j207HRLHMQDens//HU0sms8B3l7VAPilO64k6fK+tu10SBzHAHh7Pv93RLFwfnf2tqoGQJuOJN2evXhuv9qfkKOJxXP9uduq2nQM4JI0UNtOh8RxDIC3tctvM3MHsXgfu8XUZVUNgFvHliRd3vAXQeIYBsDb+tT+hBzRxoLq/YYHwDiGL4BI0njDPwsXxzAA3pbf/z2yWECXg7k+A6AkrdHwN4HjGAbA6yt5J4yJYhH9EsX1VQyA/u6SNN6Xtq3eLI5hALw+l385ulhEv0V7fRUDoEvASNJ4BsA5lf0WMxPFQnob+LoMgJK0RgbA+1f2M3xMFovp7cjrMgBK0hoZAO+fb/+eSSzor26B9XYGQElaIwPg/fPt3zOJBXVR6MszAErSGhkA75uLP59NLOpzt8h6OwOgJK2RAfC+DV93kQXFwv7oFlrbGQAlaY0MgPfrZ/uTcTaxuL4MclkGQElao4oB8Gt3TG3n2n9nFgvsyyDv97X9uW4Wx/jcHVOSdH0VA6B/kL9fzga+/HFmscBOhPer2HD8FJwkjTd8SZI4hue99xt+3mNxscj5yyBeBfxzwy+DxzEMgJI03vCXEuIYH7tj6vf88scjiIX2r6E/V7Hh+Ak+SRrvuW2rN4tj+Af5n3Ppl0cRi+1VwD83vOGkjeNKkq6obadD4jj+Qf7nvPr3SGLBvQr4Ru1PNCyO5dIDknR7Zb9JG8fyosd2Pvv3aGLR819EP189CPRPw5eAeRHHcukBSbq9srcm41j+Qf57vvn7qGLhXRfw94YvAfMijuXvK0m3V3ZdujiWd71+z3X/Hlk8APyr6L/72P40w+JYT92xJUmXV/J57BTH8kWQ/67s7XUOKh4EfiP4vyt9OTyO5+f3JOn6yn+WLI7pc4D/qWy45sDigeCl8X/63v4kZeKYPgcoSddX9nGcF3HMb91tPGrlf1sOLB4QXqkquOJ8L47pbWBJur7yV6jimC4I/c9zvS9+8B/xgMhB5ZFfHt/t21BxXJ+zlKTLK3/790Ueu7utR8tbv/wuHhiP/K3V3V4Sj2P7NrAkXV75uzEv4tiP/JGn3f6unEA8QB71M2u7Xgk9ju+ai5L0fru9+pfi+I/6S1h+7o33xQPle/fAOXu7Xwk9bsOrgJL0fru/ShW38WivArrkC5eJB0v+C+lRvhRytyuhx+34LKAkvd1dBpW4nUf6JSxf+uA6+YBpD5ytB9SZKrvw83vitlxzUZLe7m5fUIjbeoQLQxv+uE0+cNoDaOuBdYbu/pmIuM3P3X2QJN3hozi9uM0zf+bd8MeYfAC1B9LWA+zITTs54nZdjFSS/lP5RfgvFbft+Q3ekg+k6ExfDMnPfkw9OeL2z7jpSNK1TR1W8rbbfdi6b0csP2tu+KNWPKjO8HJ5Dn/TL4QZ9+FRPmMpSW+1xCtVeR/afdm6j0fKT7yxn3iA5U/pHPUaSktsNi/yvkTeDpb0iOW7Sqvtx0cdAvM5+W5faOSBxQMtT5SjvSWcg9aSL4vH/XrkK9NLerzu/oWPS8V9O9o7XfmW764/ZAC/iQddfo1+9WspHeJfRnEf8xIx3hKWdOby+eKvtu0tK+5jvtO1+nNb3j+v+jFXPAjzVy5WPFnyX3KH+jBs3N+8TMwj/kyRpPOWe9qyr/ptifub73TluzOr7ceH+1vyAOJBucIgmCdHDn6HfUk87vvLxrP6v0Al6U/9PaxEh/qH+Gt539t/w+xBMJ8P8jn2sH9LHkA8QPOt4fzM3T1PmHz79HQnR/z35FsRj/bbzJKOXe5Zu/+m7z3Ff08Ogvkcc8/9OJ9D87l0+bfN4Tf5wI3yFbnqz7flv4byxHiIfxHlf2OUw+Aef0tJGin3pNyPc496lP04n3vyv7n6nZr8W+Y+7/N9nEs8qHMgzM+55Uvq+e2l7K1XCvP//uV/kydE/v/J//9eAg/tb9H/Lb1tLGmPcm952Wdyz8m9x34c8m/Q/haXPrdlL/+bfG77+2/ZDgcAAAAAAAAAAAAAAAAAAAAAAAAAAAAAAAAAAAAAAAAAAAAAAAAAAAAAAAAAAAAAAAAAAAAAAAAAAAAAAAAAAAAAAAAAAAAAAAAAAAAAAAAAAAAAAAAAAAAAAAAAAAAAAAAAAAAAAAAAAAAAAAAAAAAAAAAAAAAAAAAAAAAAAAAAAAAAAAAAAAAAAAAAAAAAAAAAAAAAAAAAAAAAAAAAAAAAAAAAAAAAAAAAAAAAAAAAAAAAAAAAAAAAAAAAAAAAAAAAAAAAAAAAAAAAAAAAAAAAAAAAAAAAAAAAAAAAAAAAAAAAAAAAAAAAAAAAAAAAAAAAAAAAAAAAAAAAAAAAAAAAAAAAAAAAAAAAAAAAAAAAAAAAAAAAAAAAAAAAAAAAAAAAAAAAAAAAAAAAAAAAAAAAAAAAAAAAAAAAAAAAAAAAAAAAAAAAAAAAAAAAAAAAwEz/+tf/A6eZAjBN5ry+AAAAAElFTkSuQmCC;" vertex="1" parent="1">
          <mxGeometry x="380" y="434.18" width="85" height="78.36" as="geometry" />
        </mxCell>
        <mxCell id="9wrE17VdA23gmFdNsfKJ-28" value="recommend-queue" style="sketch=0;points=[[0,0,0],[0.25,0,0],[0.5,0,0],[0.75,0,0],[1,0,0],[0,1,0],[0.25,1,0],[0.5,1,0],[0.75,1,0],[1,1,0],[0,0.25,0],[0,0.5,0],[0,0.75,0],[1,0.25,0],[1,0.5,0],[1,0.75,0]];outlineConnect=0;fontColor=#232F3E;gradientColor=#FF4F8B;gradientDirection=north;fillColor=#BC1356;strokeColor=#ffffff;dashed=0;verticalLabelPosition=bottom;verticalAlign=top;align=center;html=1;fontSize=20;fontStyle=0;aspect=fixed;shape=mxgraph.aws4.resourceIcon;resIcon=mxgraph.aws4.sqs;" vertex="1" parent="1">
          <mxGeometry x="750" y="438.36" width="70" height="70" as="geometry" />
        </mxCell>
        <mxCell id="9wrE17VdA23gmFdNsfKJ-68" style="edgeStyle=orthogonalEdgeStyle;rounded=0;orthogonalLoop=1;jettySize=auto;html=1;strokeWidth=2;" edge="1" parent="1" source="9wrE17VdA23gmFdNsfKJ-29" target="9wrE17VdA23gmFdNsfKJ-6">
          <mxGeometry relative="1" as="geometry" />
        </mxCell>
        <mxCell id="9wrE17VdA23gmFdNsfKJ-29" value="email-queue" style="sketch=0;points=[[0,0,0],[0.25,0,0],[0.5,0,0],[0.75,0,0],[1,0,0],[0,1,0],[0.25,1,0],[0.5,1,0],[0.75,1,0],[1,1,0],[0,0.25,0],[0,0.5,0],[0,0.75,0],[1,0.25,0],[1,0.5,0],[1,0.75,0]];outlineConnect=0;fontColor=#232F3E;gradientColor=#FF4F8B;gradientDirection=north;fillColor=#BC1356;strokeColor=#ffffff;dashed=0;verticalLabelPosition=bottom;verticalAlign=top;align=center;html=1;fontSize=20;fontStyle=0;aspect=fixed;shape=mxgraph.aws4.resourceIcon;resIcon=mxgraph.aws4.sqs;" vertex="1" parent="1">
          <mxGeometry x="742" y="610" width="70" height="70" as="geometry" />
        </mxCell>
        <mxCell id="9wrE17VdA23gmFdNsfKJ-62" value="HTTP" style="edgeStyle=orthogonalEdgeStyle;rounded=0;orthogonalLoop=1;jettySize=auto;html=1;entryX=0;entryY=0.5;entryDx=0;entryDy=0;entryPerimeter=0;fontSize=15;strokeWidth=2;" edge="1" parent="1" source="9wrE17VdA23gmFdNsfKJ-30" target="9wrE17VdA23gmFdNsfKJ-28">
          <mxGeometry relative="1" as="geometry">
            <Array as="points">
              <mxPoint x="423" y="560" />
              <mxPoint x="510" y="560" />
              <mxPoint x="510" y="473" />
            </Array>
          </mxGeometry>
        </mxCell>
        <mxCell id="9wrE17VdA23gmFdNsfKJ-63" value="HTTP" style="edgeStyle=orthogonalEdgeStyle;rounded=0;orthogonalLoop=1;jettySize=auto;html=1;entryX=1;entryY=0.5;entryDx=0;entryDy=0;entryPerimeter=0;strokeWidth=2;fontSize=15;startArrow=classic;startFill=1;" edge="1" parent="1" source="9wrE17VdA23gmFdNsfKJ-30" target="9wrE17VdA23gmFdNsfKJ-31">
          <mxGeometry relative="1" as="geometry" />
        </mxCell>
        <mxCell id="9wrE17VdA23gmFdNsfKJ-65" style="edgeStyle=orthogonalEdgeStyle;rounded=0;orthogonalLoop=1;jettySize=auto;html=1;strokeWidth=2;fontSize=15;" edge="1" parent="1" source="9wrE17VdA23gmFdNsfKJ-30" target="9jAOJpAXfEybDHtKabXW-4">
          <mxGeometry relative="1" as="geometry">
            <Array as="points">
              <mxPoint x="500" y="670" />
              <mxPoint x="500" y="750" />
              <mxPoint x="423" y="750" />
            </Array>
          </mxGeometry>
        </mxCell>
        <mxCell id="9wrE17VdA23gmFdNsfKJ-66" value="gRPC" style="edgeStyle=orthogonalEdgeStyle;rounded=0;orthogonalLoop=1;jettySize=auto;html=1;entryX=0;entryY=0.5;entryDx=0;entryDy=0;entryPerimeter=0;fontSize=15;strokeWidth=2;startArrow=classic;startFill=1;" edge="1" parent="1" source="9wrE17VdA23gmFdNsfKJ-30" target="9wrE17VdA23gmFdNsfKJ-33">
          <mxGeometry relative="1" as="geometry" />
        </mxCell>
        <mxCell id="9wrE17VdA23gmFdNsfKJ-67" value="HTTP" style="edgeStyle=orthogonalEdgeStyle;rounded=0;orthogonalLoop=1;jettySize=auto;html=1;exitX=1;exitY=0.21;exitDx=0;exitDy=0;exitPerimeter=0;entryX=0.5;entryY=0;entryDx=0;entryDy=0;entryPerimeter=0;strokeWidth=2;fontSize=15;" edge="1" parent="1" source="9wrE17VdA23gmFdNsfKJ-30" target="9wrE17VdA23gmFdNsfKJ-29">
          <mxGeometry relative="1" as="geometry">
            <Array as="points">
              <mxPoint x="458" y="580" />
              <mxPoint x="777" y="580" />
            </Array>
          </mxGeometry>
        </mxCell>
        <mxCell id="9wrE17VdA23gmFdNsfKJ-76" value="HTTP" style="edgeStyle=orthogonalEdgeStyle;rounded=0;orthogonalLoop=1;jettySize=auto;html=1;exitX=0;exitY=0.21;exitDx=0;exitDy=0;exitPerimeter=0;entryX=0;entryY=0.79;entryDx=0;entryDy=0;entryPerimeter=0;strokeWidth=2;fontSize=15;" edge="1" parent="1" source="9wrE17VdA23gmFdNsfKJ-30" target="9jAOJpAXfEybDHtKabXW-7">
          <mxGeometry relative="1" as="geometry">
            <Array as="points">
              <mxPoint x="350" y="625" />
              <mxPoint x="350" y="322" />
            </Array>
          </mxGeometry>
        </mxCell>
        <mxCell id="9wrE17VdA23gmFdNsfKJ-30" value="recommend-api" style="outlineConnect=0;dashed=0;verticalLabelPosition=bottom;verticalAlign=top;align=center;html=1;shape=mxgraph.aws3.ec2;fillColor=#F58534;gradientColor=none;fontSize=20;aspect=fixed;" vertex="1" parent="1">
          <mxGeometry x="387.5" y="610" width="70" height="70" as="geometry" />
        </mxCell>
        <mxCell id="9wrE17VdA23gmFdNsfKJ-64" value="HTTP" style="edgeStyle=orthogonalEdgeStyle;rounded=0;orthogonalLoop=1;jettySize=auto;html=1;strokeWidth=2;fontSize=15;" edge="1" parent="1" source="9wrE17VdA23gmFdNsfKJ-31" target="9wrE17VdA23gmFdNsfKJ-32">
          <mxGeometry relative="1" as="geometry">
            <Array as="points">
              <mxPoint x="180" y="645" />
              <mxPoint x="180" y="819.1800000000001" />
            </Array>
          </mxGeometry>
        </mxCell>
        <mxCell id="9wrE17VdA23gmFdNsfKJ-31" value="categories-api" style="outlineConnect=0;dashed=0;verticalLabelPosition=bottom;verticalAlign=top;align=center;html=1;shape=mxgraph.aws3.ec2;fillColor=#F58534;gradientColor=none;fontSize=20;aspect=fixed;" vertex="1" parent="1">
          <mxGeometry x="220.76" y="610" width="70" height="70" as="geometry" />
        </mxCell>
        <mxCell id="9wrE17VdA23gmFdNsfKJ-32" value="" style="shape=image;verticalLabelPosition=bottom;labelBackgroundColor=default;verticalAlign=top;aspect=fixed;imageAspect=0;image=data:image/png,iVBORw0KGgoAAAANSUhEUgAAAoAAAAJOCAYAAAAnL7bnAAAAAXNSR0IArs4c6QAAAARnQU1BAACxjwv8YQUAAAAJcEhZcwAADsMAAA7DAcdvqGQAAAAZdEVYdFNvZnR3YXJlAHBhaW50Lm5ldCA0LjAuMTczbp9jAAAmdklEQVR4Xu3d3ZEbSbKg0RGBItTDfbiPJUKLQBEoAkWgBhSBIlCEEYEi8GEFoAi77t1ROzXBLBaA8EREJs4x+8zWdmcT6ApkwImfxL8AAAAAAAAAAAAAAAAAAAAAAAAAAAAAAAAAAAAAAAAAAAAAAAAAAAAAAAAAAAAAAAAAAAAAAAAAAAAAAAAAAAAAAAAAAAAAAAAAAAAAAAAAAAAAAAAAAAAAAAAAAAAAAAAAAAAAAAAAAAAAAAAAAAAAAAAAAAAAAAAAAAAAAAAAAAAAAAAAAAAAAAAAAAAAAAAAAAAAAAAAAAAAAAAAAAAAAAAAAAAAAAAAAAAAAAAAAAAAAAAAAAAAAAAAAAAAAAAAAAAAAAAAAAAAAAAAAAAAAAAAAAAAAAAAAAAAAAAAAAAAAAAAAAAAAAAAAAAAAAAAAAAAAAAAAIAx/+d//vev1ufoS+t79O9X/V9J2rnXe072sh/l3vSyT31oWxcA72kb56coN9OXzXVrA5akI/QjehkSc2/7q213AI8pN8K2KeareD+jrc1Tks5Y7nm59+Ue6BVD4Jxyc4s+Rl+j/Bfx1oYoSY9c7o25R+ZeaSAEjik2sOcoPxNj4JOk68u9M18hfG7bKsCacqOK8l+w3tKVpLpyT8291TAIrCE2pKco/5Vq6JOk/cu9Nvfcp7YNA9xPbD75OZX8EPPWBiVJ2r/8hvGnti0D7CM2mvwyR17KwKt9krROuSfnZ659eQSok5tKlG85/Iq2Nh9J0vxyj8692iAI3C43kbaZGPwk6TgZBIHbxMbhrV5JOnY5CPqMIPC+2CzyUi5+gk2SzlNeU9DP0AG/i80h3+7N60xtbR6SpOOXe7y3hYF/xIaQv0Xp7V5JOn+513s1EB5dbAT5QeGtTUKSdN6+tqcB4JHEyZ9v+fqdXkl63PI5wC+KwKOIEz6/6OHSLpKkfC7wljCcXZzoeXmXrU1AkvS4uVwMnFWc4L7lK0l6q2/t6QI4izyxuxNdkqQ+QyCcRZ7Q3QkuSdJbGQLh6PJE7k5sSZLeyxAIR5UncHdCS5J0aYZAOJo4cX3hQ5I0miEQjiJOWJd6kSRV9bk9vQCrihM1f9d36wSWJOnWPranGWA1cYI+RX7hQ5JUXT63PLenG2AlcXL6bV9J0l7lc8yH9pQDrCBOSl/6kCTtnS+FwCrihPS5P0nSvfJ5QJgtTsQP0c9XJ6YkSXuWnwf0VjDMFCeht34lSffue3saAu4tTkBv/UqSZvVXezoC7ilOPt/6lSTN6md7OgLuJU48v/YhSZrdl/a0BOwtTrj84ocLPkuSZucLIXAvcbJ9eXXySZI0s6/t6QnYS5xoXv2TJK3WU3uaAvYQJ5lX/yRJq+UXQmAvcYJ59U+StGI+Cwh7iZPr86uTTZKklfKNYNhDnFx+8k2StGq/2tMVUCVOrI/diSZJ0mp9ak9bQIU4qb53J5kkSav17/a0BYyKE+qpO8EkSVo1l4SBCnEy+fKHJOkouTA0VIiT6Ud3ckmStGo/29MXcKs4kZ67E0uSpNV7bk9jwC3iJPLLH5Kko+VtYBgRJ5G3fyVJR8vbwHCrOIF8+1eSdNS8DQy3iJPnU3cySZJ0lD63pzPgGnHyuPizJOmouSg03CJOnl/dySRJ0mFqT2fApeLEcfkXSdLR+6s9rQGXiJPGr39Iko7el/a0BlwiThqf/5MkHT2fA4RrxEnzszuJJEk6Wr/a0xrwnjhhPnQnkCRJR+2pPb0BfxIny1/dySNJ0lH72J7egD+Jk8Xv/0qSzpIvgsAl4mTxBRBJ0lnyRRC4RJ4s3ckjSdJR+9me3oA/2Th5JEk6bO3pDXhLnChP/YkjSdLBe25Pc8CWOEl8A1iSdLb8JBz8SZwkn7qTRpKko+ebwPAneZJ0J40kSUfPAAh/EifJt+6kkSTp6LkUDPxJniTdSSNJ0tEzAMKf5EnSnTSSJB091wKEP4mT5Fd30kiSdPja0xywZeukkSTp6LWnOWDL1kkjSdIJempPdcBreXJ0J4skSWfJxaBhS54c3ckiSdJZMgDCljw5upNFkqSzZACELXlydCeLJElnyQAIW/Lk6E4WSZLO0sf2dAe8FieHAVCSdNb8HjBsiZPDAChJOmsGQNgSJ8en7mSRJOksGQBhS54c3ckiSdJZMgDCljg58hXAf3f5bWBJ0tHK567++exTe7oDrhEnz3OUnxP8HOWrhXlC/Yi2Tj5JkvbqZ5TPQflclM9J+dz03J6ugHtpJ1+ehN8jrxpKkqrK55R8bslhz7X8YGVxkuarhTkQeoVQknRt+dyRA59X9eCo4gR+inIYzJfst050SZLyOSKHvqf29AGcRZzY+Vbxt2jr5JckPV759q63duERxMmerwoaBCXpccvnAK/2wSPKkz/Kf/1tbQ6SpPOV3941+AH//61hnxGUpPOWe/zHtu0D/CM2hg/R17ZRSJLOU+7tH9p2D/C72CTy1UDXEpSk45d7uVf9gMvEhpGfDXQNQUk6brmHu44fcJ3YOPIt4fyw8NbGIklatxz+vOUL3C42EZeLkaTjZPgDasRmYgiUpPUz/AG12sayteFIkuZn+APq5cbSNpitjUeSNK/8tq/hD1YVJ2h+uzYvs/Ixyh/dfinfYs0vXGT5f379/5b/+yV+pzHux3PkEjGStFZLfNs37sffz1fR6+ewPz2/5XNh/u/9MgnnEA/mfLXs5STIn1qreuUsr+SeJ1Eed8pQGLf7Kdq6b5Kk+/e5bc93Fbf7+jmu6pek8rkyj/f3c1zkVU3W1x6sebX1e79NmidLDmV3O1HabW7dF0nS/fp325Z3F7eVL2zkc03u//d8JyifU/O5dYl3wuBv8YDMt0TzJe0V3hbN+5D3ZfeX0uM2ciPwVrAkzSv34Hvs9/nRpdWe5wyD3F888F7+FVT1kvce5dvEu24McfzPr25PknTfvrTteBdx/JfBb+u2Vyifg/N5yNvE7CsfZFF+LuFIr3zt+gPgceyVh2BJOmu59+6yt+dxo3zu2LrdFcvn5HxuNghSrz24jjT4vS43il1eLo/j+kKIJN2/T20bLhXHzY81HfUf9n8Pgu0/BcbEgym/2HGWV7l2+aZYHNergJJ0v3627bdUHPcs/6Df7UUPHkA8eI72EvilfWv/iWXimF4FlKT7Vf7qXxxz5c/63Vp+W9nbwlwuHjD5EviZf/FijyHwqG+PS9KRyr22dKiJ451x+HspXw1c4iLZLC4eKPlq1iMMM1/bf3KJPF53fElSfaX/gI/jPcrVHHb5zCQnEQ+Q/KLH1gPnrH1s/+nD4lh5uYCt25Ak1VX2alYcK3+Gbes2zlr5u1+cQD4wugfKI5SvdJZdKzCOdea3zSVpdmVf/ohjPerF/A2B/Ec+ILoHyCNV9jNCcSwXhpak/Sr76E4c65F/ztMQyMMPfy+VvBUcx/E2sCTtV8nbv3GcvLzZ1vEfKUPgI4sHwKN95u+tKt9WcE1ASarvV9tmh8Wx7NP/VPplSA4iFt616/67km9IxXF8G1iS6it5xSqO82hf/Hgv3w5+JLHgeZ0/16377360P8+QOI7BWpLqq/pH+r+748p1Ah9DLHR+88m3VbcbPgniGD4HKEn12Z/3K98S94shZxeL7C3Kt6t6i8Grq5JUWNteh8RxPP+93ff2Z+KMYoF98+nPlXwZJI7jLQZJqqvkcl1xHF/++HNlP47AYmJxPfjfr+JtBt+ulqS6hr+tGsfw9u/7eSv4jGJRDSWX9bn9yW4Wx/BFEEmq60vbXm8Wx3Ch/ssa/luzkFjQ/JePz6Vd1vDnIOIY3mqXpLr+atvrzeIYfvTg8sp+IpXJYjE98C9v+GKjcQxvNUhSXRUDoKtfXJ5fCTmDWEjDyPUNfwZi45iSpBtq2+qQrePqj3kV8OhiEb36d30V/9r0lrskFdS21ZvFMXws5/q8CnhksYBe/but4SvOxzFcCkaSxhu+PFccwwB4W14FPKpYPN/8va2Kb5wZACVpvOFrAMYxPBfellcBjyoWz9uQt2UAlKQ1MgDOK2cI1wU8mlg016K7vYpLwfjspSSNZwCc2/BHorizWLTv3SLq8mw4krRGFfux58Pb+9H+jBxBLJgvf4xlAJSkNRr+HFocw0dyxvJlkKOIxfKTN2MZACVpjXwme37DP5HKncRiueL5WAZASVojA+D8vA18BLFQH7qF0/UZACVpjQyAa+Rt4NXFIvn273gGQElaIwPgGnkbeHWxSC4/Mp4BUJLWyAC4RsOXR2NnsUgu/jyeAVCS1sgAuEjtz8mKYoGe+wXTTRkAJWmNDIDr9Ff7k7KaWByXf6mpYgD04+OSNN7wZ8/iGAbAmoaHcXYSi+PzfzUZACVpjYZfdYpjGABr8jnAVcXi/OwWS7dlAJSkNTIArtOv9idlJbEwrv9X1/AAmDaOK0m6ruHrz8UxDIB1uR7gamJRvOJUlwFQkhaobadD4jgGwLo+tj8rq4hF8QWQuqoGQJuOJN3ez7adDonj2Ivr8kWQ1cSi+AJIXVUD4PfuuJKky/OP8fXyRZDVxKJ4gNdVtem4FqAk3d7Xtp0OieN4fqzrR/uzsopYFL8AUlfVAPixO64k6fI+te10SBzHAFhY+7Oyiq1F0s1VDYBP3XElSZf33LbTIXEcA2Btvgm8ilgM3wCurWQATHEsr8xK0g21bXRYHMsAWJufhFtFLka3OBqrcgD0RRBJur7KfdgAWFvJW/MUiMXwZYPaKjcel+eRpOsru9xIHMsAWJtLwawiF6NbHI1VOQA+d8eWJL1fyef/UhzLAFhbybezKRCL4RqAtZUNgCmO5zeaJenySn9zNo5nAKyt9DmSAbkY3eJorOoB8Gt3fEnS231r22eJOJ7nyNoMgKvIxegWR2NVD4DeBpakyyv9vdk4nufI2lwMehWxGN5irK38XzdxTGskSe9X8vu/r8UxDYDFtT8ts20tjobaYwD0bWBJer/yb5jGMQ2AxbU/LbNtLY6G2mMA/NDdhiTp98p/ZSKOaQAsrv1pmW1rcTTULh9wjeP6trYkvV3plz9exHENgPV9aH9eZtpYGI211wDot4El6e3Krv33WhzXAFifn4ObLRbBN0zr22UATHFsrwJK0u/t8upfimMbAOszAM6Wi9AtisbbcwDMVwF/vbotSdIOn/17Ecc2ANZnAJwtF6FbFI232wCY4vh+uk+S/tOuPy0WxzcA1mcAnC0XoVsUjbfrAJjiNlwXUJL+2Qt3/UJBHN8AWJ8BcLZchG5RNN49BkDrJkl3GCTiNgyA9RkAZ8tF6BZF4+0+AKa4HW8FS3rkdn3r90XcjgGwPgPgbLkI3aJovLsMgClvq7ttSXqE7vZ7snFb9tn6DICz5SJ0i6Lx7jkA5i+E/Hh125J09vJKCHe7kHDclgGwPgPgbLkI3aJovLsNgCluL6/l6NIwkh6h3Ot2ueDzW+L2DID1GQBny0XoFkXj3XUATHGbhkBJZ+/uw1+K2zQA1mcAnC0XoVsUjXf3ATDF7RoCJZ21KcNfits1ANZnAJwtF6FbFI03ZQBMcds5BPpMoKQzNW34S3HbBsD6DICz5SJ0i6Lxpg2AKW4/vxhiw5J0hvIftHf7wseWuH37aX0GwNlyEbpF0XhTB8AXcT9cJ1DSkbvLdf7eE/fDAFifAXC2XIRuUTTeEgNgivuS6+tn4yQdqdyzlhkQ4r4YAOszAM6Wi9AtisZbZgBMcX/yLWGvBko6QrlXTX3Ltxf3xwBYnwFwtlyEblE03lID4Iu4X0/Rt1f3U5JWKfemp7ZdLSXulwGwPgPgbLkI3aJovCUHwBdx/wyCklYp96Jp3/C9RNw/A2B9BsDZchG6RdF4Sw+AL+J+5iCYb7f4jKCke5aXdfkaLfmKXy/upwGwPgPgbLkI3aJovEMMgK/Fff4Y5b/EXUha0h7l3pJ7zMe27RxG3GcDYH0GwNlyEbpF0XiHGwBfi/ufw2D+69wFpSWNlHtI7iWHG/pei/tvAKzPADhbLkK3KBrv0APga/Hfkt8gzoEw3yrOTdDbxZK2ylf4co/IvSL3jKW+yTui/Xdt/Tfr9gyAs+UidIui8U4zAL4l/hvzcfMyGL4Mhy9t/U0kHbvX5/jLeZ97wOmfyNt/89bfRLdnAJwtF6FbFI13+gEQ4FHknt7t8RrPADhbLkK3KBrPAAhwErmnd3u8xjMAzpaL0C2KxjMAApxE7undHq/xDICz5SJ0i6LxDIAAJ5F7erfHazwD4Gy5CN2iaDwDIMBJ5J7e7fEazwA4Wy5CtygazwAIcBK5p3d7vMYzAM6Wi9AtisYzAAKcRO7p3R6v8QyAs+UidIui8QyAACeRe3q3x2s8A+BsuQjdomg8AyDASeSe3u3xGs8AOFsuQrcoGs8ACHASuad3e7zGMwDOlovQLYrGMwACnETu6d0er/EMgLPlInSLovEMgAAnkXt6t8drPAPgbLkI3aJoPAMgwEnknt7t8RrPADhbLkK3KBrPAAhwErmnd3u8xjMAzpaL0C2KxjMAApxE7undHq/xDICz5SJ0i6LxDIAAJ5F7erfHazwD4Gy5CN2iaLxDD4Bx//MxIUllte3lkOL+GwDrMwDOlovQLYrGW34AjPuY6/45+pb3N/oZbf23SFJlv6Lcc3Lv+RLlXvShbU1Lavd3679Ft2cAnC0XoVsUjbfcABj36Tn6Gv1o91GSVir3ptyjntu2tYy4TwbA+gyAs+UidIui8ZYYAON+PEW5oXp1T9KRyj0r966ntp1NFffDAFifAXC2XIRuUTTe1AEwbj8Hv3x7Zeu+SdKR+h5NHRbi9g2A9RkAZ8tF6BZF400ZAON2DX6SzloOglNeEYzbNQDWZwCcLRehWxSNd/cBMG4zv9CRH67euj+SdIZyj/vctr27ids0ANZnAJwtF6FbFI13twEwbutDlP8y3rofknTGciC72zeH2+1t3Q/dngFwtlyEblE03l0GwLidHP58q1fSI5Z7312+MRy3YwCszwA4Wy5Ctygab/cBMG4jL+vi272SHrl8S3j3ITBuwwBYnwFwtlyEblE03q4DYBzfK3+S9E85BO765ZA4vgGwPgPgbLkI3aJovL0HQMOfJP2n3BN3+0xgHNsAWJ8BcLZchG5RNN5uA2AcOy+OunWbkvTIfWvbZLk4tgGwPgPgbLkI3aJovF0GwDiutZKkt/vYtstScVwDYH0GwNlyEbpF0Xh7DYC+9CFJb5efByx/KziOaQCszwA4Wy5Ctygar3wAjGN+6W5DkvR7X9q2WSaOaQCszwA4Wy5Ctygar3QAjOPlt379yockvV/5q4BxPANgfQbA2XIRukXReNUDYP7M29btSJJ+r/RVwDieAbA+A+BsuQjdomi86gHQZ/8k6fJ+tu2zRBzPAFifAXC2XIRuUTRe2QAYx8pf/Ni6DUnS25V9IziOZQCszwA4Wy5Ctygar3IAdN0/Sbq+susCxrEMgPUZAGfLRegWReNVDoDe/pWk6/vVttFhcSwDYH0GwNlyEbpF0XglA2Acx9u/knR7z207HRLHMQDWZwCcLRehWxSNVzUAfuqOK0m6vM9tOx0SxzEA1mcAnC0XoVsUjVc1AH7rjitJurzvbTsdEscxANZnAJwtF6FbFI1XNQDadCTp9kouBxPHsRfXZwCcLRehWxSNVzUAbh1bknRhbTsdEscxANZnAJwtF6FbFI03PADGMZ66Y0qSrm/4iyBxDANgfQbA2XIRukXReBUDoHWRpPGGB404hgGwPgPgbLkI3aJoPAOgJK3R8DeB4xgGwPoMgLPlInSLovEqBsAv3TElSdf3pW2rN4tjGADrMwDOlovQLYrGMwBK0hoZANfMADhbLkK3KBrPAChJa2QAXDMD4Gy5CN2iaDwDoCStkQFwzQyAs+UidIui8QyAkrRGBsA1MwDOlovQLYrGMwBK0hoZANfMADhbLkK3KBrPAChJa2QAXDMD4Gy5CN2iaDwDoCStkQFwzQyAs+UidIui8QyAkrRGBsA1MwDOlovQLYrGqxgAP3bHlCRdnwFwzQyAs+UidIui8SoGQOsiSeMNDxpxDANgfQbA2XIRukXReBUD4HN3TEnS9RkA18wAOFsuQrcoGm94AEwbx5UkXdeHtqXeLI5hAKzPADhbLkK3KBqvagD82R1XknR5v9p2OiSOYwCszwA4Wy5Ctygar2oA/N4dV5J0eVV7sQGwPgPgbLkI3aJovKpNx6VgJOn2hr8BnOI4BsD6DICz5SJ0i6LxqgZAayNJt/exbadD4jgGwPoMgLPlInSLovFKBsAUx/rVHVuSdFnDXwBJcRwDYH0GwNlyEbpF0XiVA6DPAUrS9X1v2+iwOJYBsD4D4Gy5CN2iaLzKAfBTd2xJ0vt9atvosDiWAbA+A+BsuQjdomi8sgEwxfG8DSxJ11Xy9m+KYxkA6zMAzpaL0C2KxqseAL92x5ckvd23tn2WiOMZAOszAM6Wi9AtisarHgCfuuNLkt7uqW2fJeJ4BsD6DICz5SJ0i6LxSgfAFMf81t2GJOn3Sl/9S3FMA2B9BsDZchG6RdF4ewyA+SqgzwJK0p8rffUvxTENgPUZAGfLRegWReOVD4ApjuuXQSTp7Up++aMXxzUA1mcAnC0XoVsUjbfLAJjy2N1tSZL+539/tG2yXBzbvlufAXC2XIRuUTTengOgt4Il6b/LPfG5bZPl4tgGwPoMgLPlInSLovF2GwBTHP+5uz1JeuRKfvP3LXF8A2B9BsDZchG6RdF4uw6AKW7DL4RIUuEvfrwlbsMAWJ8BcLZYhA/domi83QfAFLeTQ6C3gyU9arsPfyluxwBYnwFwBRsLo7HuMgCmuK18O/jnq9uWpLO362f+enFbBsD6DIAr2FgYjXW3ATDF7eWruN9f3b4knbUcxsp+5/cS7Ta37otu765ryBs2FkZj3XUAfBG3+zHyaqCkM5av+t3lLd9e3K4BsLj2p2W2rcXRUFMGwBS3na8G5gWjfTZQ0hnKvSz3tGmvGMVtGwCLa39aZttaHA01bQB8EfchB8H8ksiPdp8k6Ujluxmfo+lvFcZ9MAAW1/60zLa1OBpq+gD4Wtyf/KLI18gwKGnlco/KvepuX/C4RNwfA2Bx7U/LbLEYBoPalhoAX4v7lq8M5mcF8y2V3NS8VSxpRrn35B6UA1/uSU9tm1pOu59b/w26sfanZbZYDA/u2pYdAN8S9zkvCJ7l28Y5HEpSZbm3/L3PtG3nMOI+e46s7Wf70zJbLIYHd22HGwAB2JZ7erfHayzPkavIxegWR2N5cAOcRO7p3R6vsTxHriIXo1scjeXBDXASuad3e7zG8hy5iliM/HzG1iLptjy4AU4i9/Ruj9dY39ufltliMQyAtRkAAU4i9/Ruj9dYX9qfltlyMbrF0VgGQICTyD292+M1lgFwFbEY+fX8rUXSbRkAAU4i9/Ruj9dYBsBVxGLktZm2Fkm3ZQAEOInc07s9XmN9bH9aZovFMADWZgAEOInc07s9XmMd7mLgpxWL8dQtjsYyAAKcRO7p3R6vsQyAK9lYIN2eARDgJHJP7/Z4jfWh/WlZwcYC6fYMgAAnkXt6t8droPZnZRWxKD/6RdLNGQABTiL39G6P1+39an9WVhGL4gFelwEQ4CRyT+/2eN2e58fVxKJ87xZJt+cBDnASuad3e7xuz/PjamJR/BpIXR7gACeRe3q3x+v2vrY/K6uIRfncLZJu7zADYNzXvARQXgcyfw0m/xGQ5avBueFJUkW5p7zsL7nX5J7z1Lah5cV9zf+Grb1e1+dXQFYTi+Ji0HUtOwDGffsY5SacG9qvaOv+S9K9yr3oa5R705KXB2n3ceu+6/r8CshqYlGeu0XS7S0zAMZ9+RDlv7h9xlPSEcq9KvesZYbBuC8GwLpcBHpFGwul25o+AMZ9yLd2v0Ve5ZN01HIPe27b2jRxHwyAdbkI9IpiYQwLNU0bAOO2Xwa/rfslSUcsB7Bpg2C7/a37pStrf1JWE4vjQV7T3QfAuM18qzc/R7N1fyTpDOUed/dXkOI2PTfWtOzn4x9eLI5Xjmq664M8bi8/v/nz1e1L0lnLve6urwbG7RkAa/re/qSsJhYnvx26tWi6rrsNgHFb+WHprfsgSWfuU9sGdxe3ZQCsySVgVhWL41IwNd1lAIzbce1GSY/ct7Yd7ipuxwBY092Gdq4Ui5NfINhaNF3X7gNg3IbhT5LuMATGbRgAa3IJmJVtLJiub9cBMI7vbV9J+k+7vrIUxzcAFtT+nKwqFskDfbzdBsA4tgt2S9Lv7fbqUhzb8+J4P9qfk1XFIvkm8Hi7DIBx3LzUi2/7StLv5XVsd7lETBzXADiebwCvLhbJZ8vG22sAdJ0/SXq7XT4PGMc1AI7nG8Cri0XyTeDxygfAOKa3fiXp/crfCo5jGgDH8wWQI9hYOF3XHgOgDUiS3s/+u2Z+A/gIYqF+dAun6yrdgOJ4XpWVpMsrfbUpjmcAHOtn+1OyulgsXwQZq3oAtB6SdHmlXziI4xkAx/IFkKOIxXKdubHKBsA4Vn7zd+s2JElv99S20WFxLAPgWJ/bn5LVxWL5RZCxKgdAw7gkXV/Z0BHHMgCO9dz+lBxBLFheU2lrIfV+lQPg9+7YkqT3K7vwcBzLADhQ+zNyFLFoBo/bqxwAt44vSXq/km+exnEMgLdX+pl47iAWzQWhb6/kAR/H8e1fSbq9j207HRLHMQDens//HU0sms8B3l7VAPilO64k6fK+tu10SBzHAHh7Pv93RLFwfnf2tqoGQJuOJN2evXhuv9qfkKOJxXP9uduq2nQM4JI0UNtOh8RxDIC3tctvM3MHsXgfu8XUZVUNgFvHliRd3vAXQeIYBsDb+tT+hBzRxoLq/YYHwDiGL4BI0njDPwsXxzAA3pbf/z2yWECXg7k+A6AkrdHwN4HjGAbA6yt5J4yJYhH9EsX1VQyA/u6SNN6Xtq3eLI5hALw+l385ulhEv0V7fRUDoEvASNJ4BsA5lf0WMxPFQnob+LoMgJK0RgbA+1f2M3xMFovp7cjrMgBK0hoZAO+fb/+eSSzor26B9XYGQElaIwPg/fPt3zOJBXVR6MszAErSGhkA75uLP59NLOpzt8h6OwOgJK2RAfC+DV93kQXFwv7oFlrbGQAlaY0MgPfrZ/uTcTaxuL4MclkGQElao4oB8Gt3TG3n2n9nFgvsyyDv97X9uW4Wx/jcHVOSdH0VA6B/kL9fzga+/HFmscBOhPer2HD8FJwkjTd8SZI4hue99xt+3mNxscj5yyBeBfxzwy+DxzEMgJI03vCXEuIYH7tj6vf88scjiIX2r6E/V7Hh+Ak+SRrvuW2rN4tj+Af5n3Ppl0cRi+1VwD83vOGkjeNKkq6obadD4jj+Qf7nvPr3SGLBvQr4Ru1PNCyO5dIDknR7Zb9JG8fyosd2Pvv3aGLR819EP189CPRPw5eAeRHHcukBSbq9srcm41j+Qf57vvn7qGLhXRfw94YvAfMijuXvK0m3V3ZdujiWd71+z3X/Hlk8APyr6L/72P40w+JYT92xJUmXV/J57BTH8kWQ/67s7XUOKh4EfiP4vyt9OTyO5+f3JOn6yn+WLI7pc4D/qWy45sDigeCl8X/63v4kZeKYPgcoSddX9nGcF3HMb91tPGrlf1sOLB4QXqkquOJ8L47pbWBJur7yV6jimC4I/c9zvS9+8B/xgMhB5ZFfHt/t21BxXJ+zlKTLK3/790Ueu7utR8tbv/wuHhiP/K3V3V4Sj2P7NrAkXV75uzEv4tiP/JGn3f6unEA8QB71M2u7Xgk9ju+ai5L0fru9+pfi+I/6S1h+7o33xQPle/fAOXu7Xwk9bsOrgJL0fru/ShW38WivArrkC5eJB0v+C+lRvhRytyuhx+34LKAkvd1dBpW4nUf6JSxf+uA6+YBpD5ytB9SZKrvw83vitlxzUZLe7m5fUIjbeoQLQxv+uE0+cNoDaOuBdYbu/pmIuM3P3X2QJN3hozi9uM0zf+bd8MeYfAC1B9LWA+zITTs54nZdjFSS/lP5RfgvFbft+Q3ekg+k6ExfDMnPfkw9OeL2z7jpSNK1TR1W8rbbfdi6b0csP2tu+KNWPKjO8HJ5Dn/TL4QZ9+FRPmMpSW+1xCtVeR/afdm6j0fKT7yxn3iA5U/pHPUaSktsNi/yvkTeDpb0iOW7Sqvtx0cdAvM5+W5faOSBxQMtT5SjvSWcg9aSL4vH/XrkK9NLerzu/oWPS8V9O9o7XfmW764/ZAC/iQddfo1+9WspHeJfRnEf8xIx3hKWdOby+eKvtu0tK+5jvtO1+nNb3j+v+jFXPAjzVy5WPFnyX3KH+jBs3N+8TMwj/kyRpPOWe9qyr/ptifub73TluzOr7ceH+1vyAOJBucIgmCdHDn6HfUk87vvLxrP6v0Al6U/9PaxEh/qH+Gt539t/w+xBMJ8P8jn2sH9LHkA8QPOt4fzM3T1PmHz79HQnR/z35FsRj/bbzJKOXe5Zu/+m7z3Ff08Ogvkcc8/9OJ9D87l0+bfN4Tf5wI3yFbnqz7flv4byxHiIfxHlf2OUw+Aef0tJGin3pNyPc496lP04n3vyv7n6nZr8W+Y+7/N9nEs8qHMgzM+55Uvq+e2l7K1XCvP//uV/kydE/v/J//9eAg/tb9H/Lb1tLGmPcm952Wdyz8m9x34c8m/Q/haXPrdlL/+bfG77+2/ZDgcAAAAAAAAAAAAAAAAAAAAAAAAAAAAAAAAAAAAAAAAAAAAAAAAAAAAAAAAAAAAAAAAAAAAAAAAAAAAAAAAAAAAAAAAAAAAAAAAAAAAAAAAAAAAAAAAAAAAAAAAAAAAAAAAAAAAAAAAAAAAAAAAAAAAAAAAAAAAAAAAAAAAAAAAAAAAAAAAAAAAAAAAAAAAAAAAAAAAAAAAAAAAAAAAAAAAAAAAAAAAAAAAAAAAAAAAAAAAAAAAAAAAAAAAAAAAAAAAAAAAAAAAAAAAAAAAAAAAAAAAAAAAAAAAAAAAAAAAAAAAAAAAAAAAAAAAAAAAAAAAAAAAAAAAAAAAAAAAAAAAAAAAAAAAAAAAAAAAAAAAAAAAAAAAAAAAAAAAAAAAAAAAAAAAAAAAAAAAAAAAAAAAAAAAAAAAAAAAAAAAAAAAAAAAAAAAAAAAAAAAAAAAAwEz/+tf/A6eZAjBN5ry+AAAAAElFTkSuQmCC;" vertex="1" parent="1">
          <mxGeometry x="213.26" y="779.9999999999999" width="85" height="78.36" as="geometry" />
        </mxCell>
        <mxCell id="9wrE17VdA23gmFdNsfKJ-33" value="recommend-model" style="outlineConnect=0;dashed=0;verticalLabelPosition=bottom;verticalAlign=top;align=center;html=1;shape=mxgraph.aws3.ec2;fillColor=#F58534;gradientColor=none;fontSize=20;aspect=fixed;" vertex="1" parent="1">
          <mxGeometry x="562" y="610" width="70" height="70" as="geometry" />
        </mxCell>
        <mxCell id="9wrE17VdA23gmFdNsfKJ-71" style="edgeStyle=orthogonalEdgeStyle;rounded=0;orthogonalLoop=1;jettySize=auto;html=1;strokeWidth=2;" edge="1" parent="1" source="9wrE17VdA23gmFdNsfKJ-34" target="9jAOJpAXfEybDHtKabXW-4">
          <mxGeometry relative="1" as="geometry" />
        </mxCell>
        <mxCell id="9wrE17VdA23gmFdNsfKJ-34" value="tracking-api" style="outlineConnect=0;dashed=0;verticalLabelPosition=bottom;verticalAlign=top;align=center;html=1;shape=mxgraph.aws3.ec2;fillColor=#F58534;gradientColor=none;fontSize=20;aspect=fixed;" vertex="1" parent="1">
          <mxGeometry x="562" y="784.18" width="70" height="70" as="geometry" />
        </mxCell>
      </root>
    </mxGraphModel>
  </diagram>
</mxfile>
